<?xml version="1.0" encoding="UTF-8" standalone="no"?><svg xmlns="http://www.w3.org/2000/svg" xmlns:xlink="http://www.w3.org/1999/xlink" fill="#000000" height="483.5" preserveAspectRatio="xMidYMid meet" version="1" viewBox="-144.2 -128.8 417.9 483.5" width="417.9" zoomAndPan="magnify"><g fill="#811f16" fill-rule="evenodd" id="change1_1"><path d="m-35.36-60.484c9.4847 0.030235 18.428 1.4356 20.551 10.276-4.7977 2.0299-13.499 5.921-14.507-2.4178 1.355-1.6698 2.8786-3.1658 6.0444-3.0222-0.90917-5.9134-10.646 0.64474-12.089-4.8355zm7.2533 7.8577c0.68756 2.7376 3.0474 3.8029 6.0444 4.2311 0.85881-1.156 2.2969-1.7327 2.4178-3.6266-2.2263-2.0526-6.1099-3.196-8.4622-0.60443z" fill="inherit"/><path d="m-14.205-59.879h1.8133c-0.57675 3.5586 1.5035 6.0192-0.60446 7.8577-1.768-0.81851-1.1232-6.1048-1.2089-7.8577z" fill="inherit"/><path d="m-11.183-59.879c1.2215 1.2895 4.4905 7.1122 0.60443 7.8577-0.69006-1.977-1.2139-6.5002-0.60443-7.8577z" fill="inherit"/><path d="m-23.876-51.417h2.4178c0.70517 2.0979-3.3773 2.8106-2.4178 0z" fill="inherit"/><path d="m6.9503-48.999c1.5917-0.18133 1.9846 0.83614 1.8133 2.4178-1.5917 0.18133-1.9846-0.83615-1.8133-2.4178z" fill="inherit"/><path d="m-34.152-47.186c1.5942-0.18385 1.559 1.2618 1.8133 2.4178-2.0173 0.60696-1.9821-0.83866-1.8133-2.4178z" fill="inherit"/><path d="m-66.187-43.559c0.91673 1.1535 0.56667 6.1804-1.8133 6.0444 0.62207-1.9997 0.61954-4.6189 1.8133-6.0444z" fill="inherit"/><path d="m-63.769-42.35c1.8964 0.94947 1.6395 1.2341 4.2311 0.60445 2.3422 4.9791 5.6692 5.236 7.2533 10.88-6.8503 0.64221-7.2457-7.8401-12.089-7.2533-0.35007-1.9619 0.41303-2.8132 0.60444-4.2311z" fill="inherit"/><path d="m9.3681-35.702c2.7628-0.020145 0.032743 2.1206 0.60444 3.6266 2.4656 0.45081 0.11585-3.9138 3.0222-3.0222 0.47349 2.4883-0.92932 3.1003-0.60444 5.44-1.6698-0.67244-3.3899-0.94192-3.0222 1.8133-1.3172 0.10829-1.9216-0.49615-1.8133-1.8133-1.1182 0.090672-0.37023 2.0475-1.2089 2.4178-8.8953 0.32488-11.449 11.812-20.551 13.902 5.0899-4.3797 11.366-7.5731 13.902-14.507 1.9342 0.93688 2.6595 0.21156 2.4178-2.4178 2.171 0.51126 3.6493 0.050371 4.2311-3.6266 0.82104 0.18638 0.5012 1.5136 0.60443 2.4178 2.4127 0.19896 1.2744-3.1582 2.4178-4.2311z" fill="inherit"/><path d="m8.1592-21.195h1.8133c-0.90666 2.5185-1.1535 5.6943-3.6266 6.6488-0.49111-3.3118 2.0198-3.6241 1.8133-6.6488z" fill="inherit"/><path d="m-78.276-19.986c1.6748 2.5588 2.2037 6.2585 2.4178 10.276-2.9819-1.2492-2.1911-6.2711-2.4178-10.276z" fill="inherit"/><path d="m40.194-10.92c0.48859 0.11586 0.60192 0.60697 1.2064 0.60444v1.2089c-1.083-0.075553-1.2744 0.74043-2.4178 0.60444-0.69006-1.9015 0.95199-1.4683 1.2114-2.4178z" fill="inherit"/><path d="m38.986-7.8973c0.48607 0.31984 0.98221 0.62962 1.8158 0.60444-0.81347 8.981 0.55155 13.552-1.2089 24.178-2.7704-5.9134 0.45837-18.461-0.60697-24.782z" fill="inherit"/><path d="m-25.69 6.0048c0.97718-0.16874 1.0401 0.5717 1.8133 0.60443-1.1585 11.436 3.9138 19.856 5.44 26.595-5.1982-6.2862-6.538-16.431-7.2533-27.2z" fill="inherit"/><path d="m40.799 18.698c1.3021 0.76311-0.76814 3.2136-1.2089 4.2311-2.5739-0.10074 0.90918-3.128 1.2089-4.2311z" fill="inherit"/><path d="m42.612 21.116c1.3952 1.2391-0.67495 4.1253-2.4178 4.2311 0.010071-2.2062 1.7201-2.7149 2.4178-4.2311z" fill="inherit"/><path d="m6.9503 24.138h1.8133c-0.53643 2.8862-2.39 4.4603-3.6266 6.6488-1.7907-2.2238 2.4606-3.5612 1.8133-6.6488z" fill="inherit"/><path d="m-17.832 30.182c2.249-0.23422 1.1182 2.9114 3.0222 3.0222-1.6144 1.9644-2.8006-1.5917-3.0222-3.0222z" fill="inherit"/><path d="m-40.196 31.391c2.0601-0.045332 1.7881 2.2389 1.8133 4.2311-1.4053-0.60947-1.9493-2.0803-1.8133-4.2311z" fill="inherit"/><path d="m-11.787 31.996c1.4053 0.20904 2.8333 0.39039 2.4178 2.4178-1.8939 0.27955-2.6973-0.52636-2.4178-2.4178z" fill="inherit"/><path d="m-31.734 32.6c2.249-0.63718 1.1862 2.0375 2.4178 2.4178-1.0099 1.7378-2.448-1.1232-2.4178-2.4178z" fill="inherit"/><path d="m-36.569 33.205c1.7 0.11333 2.5739 1.0502 2.4178 3.0222-1.7-0.11333-2.5739-1.0502-2.4178-3.0222z" fill="inherit"/><path d="m52.283 50.129c2.4757 0.54653 6.7219-0.67747 6.0444 3.0222-2.1835-0.83866-5.6162-0.42814-6.0444-3.0222z" fill="inherit"/><path d="m57.723 55.569c-3.7047 2.2062-11.55-1.6849-16.924-1.8133-0.3702-0.53898-0.73037-1.0804 0-1.2089 5.3669 0.23674 13.25-0.74043 16.924 3.0222z" fill="inherit"/><path d="m62.559 94.858c2.1961 0.020134 2.657 1.778 2.4178 4.2311-2.1483-0.068001-2.4329-1.9997-2.4178-4.2311z" fill="inherit"/><path d="m54.097 103.92c2.798 0.136 4.7726 8.3161 1.2089 9.0666-1.1384-2.9844 0.34252-5.8681-1.2089-9.0666z" fill="inherit"/><path d="m13.599 121.45c1.8385 0.37527 3.0902 1.3424 3.0222 3.6266-2.2944 0.080589-2.851-1.5816-3.0222-3.6266z" fill="inherit"/><path d="m5.7414 125.68c1.4834 0.40547 1.8511 3.5158 1.2089 4.2336-1.6395-0.24931-2.4933-2.8761-1.2089-4.2336z" fill="inherit"/><path d="m16.017 126.89c2.2112 0.79836 2.2566 1.9644 4.2311 1.8133 1.5514 9.734 7.6462 18.141 6.6488 28.409-3.4403 0.002533-1.5111-3.5108-1.8133-4.8355-2.0224-8.8576-5.7195-17.922-9.0666-25.386z" fill="inherit"/><path d="m23.27 156.51c-7.893-5.8076-6.1225-21.279-18.738-22.364-0.35259-2.3674 2.4858-1.5413 3.0222-3.0222 8.097 5.6012 12.167 15.234 15.715 25.386z" fill="inherit"/><path d="m-28.712 137.17c0.70266-0.098236 1.0754 0.13347 1.2089 0.60443-2.2087 9.9002 0.46593 21.191 0 30.222-3.4277-8.9004-1.9921-20.344-1.2089-30.826z" fill="inherit"/><path d="m-52.285 172.83c1.2114 4.8884-3.2136 14.479-4.8355 20.551-1.1107-4.8657 3.8558-13.779 4.8355-20.551z" fill="inherit"/><path d="m-58.934 184.92c2.6243 1.2643 0.51377 7.5858-1.8133 7.8577-1.2542-2.3397 1.7302-4.9186 1.8133-7.8577z" fill="inherit"/><path d="m-50.472 190.96c-1.2844 1.3323-0.31733 4.9186-3.0222 4.8355 0.53392-2.0853 0.15362-5.0824 3.0222-4.8355z" fill="inherit"/><path d="m-28.107 261.68c-4.1883 3.2665-4.1329 10.777-9.671 12.693 3.7878-3.667 3.8029-11.107 9.671-12.693z" fill="inherit"/><path d="m-39.592 279.82c-1.2013 1.0074-0.76815-0.052887-2.4178 0-0.062965 2.4807 2.4152 2.4203 1.8133 5.4399-2.1055-0.13599-3.808-3.813-2.4178-5.4399-4.4905-2.7653-4.8506-9.6534-6.6488-15.111 3.7274 1.1082 5.0924 4.5761 5.44 9.0691 1.2265 2.1936 4.7121 2.1357 4.2311 6.0419z" fill="inherit"/><path d="m-34.152 282.84c-2.2062-0.53644-3.2186 1.0678-4.2311 0 0.49615-0.63464 4.3721-2.5462 4.2311 0z" fill="inherit"/><path d="m-33.547 283.44c-0.065475 1.5438-2.0224 1.2013-3.6266 1.2064 0.068001-1.5438 2.0249-1.1963 3.6266-1.2064z" fill="inherit"/><path d="m-23.876 353.56c-2.176-0.16116-2.9139 1.1158-4.8355 1.2089-3.8936-5.2058-3.1708-12.875-6.6488-18.133-1.8738-2.8332-6.0948-4.2512-7.8577-6.6513-2.6142-3.5586-3.8332-10.079-4.2311-13.902-0.97214-9.3688 3.9339-18.861 4.8355-30.222 1.9241 4.0497 1.9292 11.409 3.0222 14.506-1.151 1.1334-1.5187 0.065491-3.0222 0-0.26948 1.9468-1.1585 3.2741-1.2089 5.44 2.4933-0.13855 4.1807-6.2887 8.4622-6.6489-2.9819 2.861-4.221 7.4648-9.0666 8.4596-2.6318 16.594 10.762 21.687 14.507 33.849-3.0222-13.411 4.0296-24.621 2.4178-41.709-1.5992-1.2819-5.1176-1.5791-7.2533-0.60193 1.1308-2.0954 5.2687-1.1812 7.2533-2.4178 0.76563-2.3774-1.4255-1.7982-3.0222-1.8159 0.088144-1.3197 1.5212-1.297 3.0222-1.2063-2.0702-2.443 3.2816-17.156-2.4178-19.345 2.6117-3.9616 2.2087-7.4623 2.4178-13.295-7.6965-10.716-11.986-29.852-13.298-48.355-0.75052-10.598-3.881-18.957-7.2533-26.598-4.8859 0.55406-4.6416 6.2409-6.6488 9.6736-1.841-4.4804 3.002-9.0692 4.2311-13.905 1.0351-4.0649 2.1105-10.197 3.6266-15.715 1.355-0.65984 1.0628-2.9668 2.4178-3.6241-3.0801-4.5106-4.0875-12.441-3.0222-16.924-2.7578-0.43565-1.627-3.8281-1.2089-6.0444-0.26192-0.89656-0.77318 0.23927-1.8133 0 2.1483-7.0468-4.5736-9.2076-4.2311-14.507-0.52385-1.7856-0.90414 1.4028-2.4178 0.60194v-4.2311c-13.663-2.5512-11.965 32.239-20.551 41.709-0.86385 10.333 5.8026 13.134 6.6488 21.76 0.7102 2.3145 4.4225 1.6244 3.6266 5.4399-3.7072 0.48102-2.6092-3.8382-5.44-4.2336-1.0905 29.194 17.614 50.297 28.409 72.535 0.31734 0.65228-0.24177 1.7302 0 2.4178 0.14608 1.0628 1.0402 1.3776 2.4178 1.2063 0.24681 1.4557-1.1031 1.3122-0.60445 3.0222 0.18637 0.81845 1.5136 0.50116 2.4178 0.6044 0.33244 1.3398-1.1535 0.86136-1.2089 1.8133 0.79585 2.5412 1.9846-0.002472 3.6266 0-0.45586 2.5664-3.3521 2.6923-5.44 3.6267-11.527-25.442-29.597-52.735-33.244-85.831-0.35258-3.201-0.02771-5.8479-0.60445-8.4621-0.74296-3.3597-3.6241-7.6839-3.0222-13.298 0.84371-7.8627 7.7948-15.239 7.8577-24.178-5.858 0.090668-11.807-2.9945-15.111-7.2533-31.131 4.4351-40.936 60.22-17.529 79.786 0.53643 2.2062-1.0678 3.2186 0 4.2311 2.9618-0.057922 1.8436-4.1984 6.0444-3.0197 3.3521 3.3924-5.445 7.4749-1.2089 7.8577-6.256 2.9038-14.985 0.46597-21.76-1.2088-20.047-37.725-22.405-92.414-22.364-146.28 0.065475-85.75 35.267-151.37 77.368-197.05 0.56414-0.37022 2.2289-1.4078 1.8133 0.60444 1.3021-0.51379 2.1382-1.4884 1.8133-3.6266 10.165-1.7 12.507 4.4174 18.738 6.6488 0.45838 2.385 3.1179 5.0345 1.2089 7.8577-2.7527 0.73791-2.3699-1.6597-4.8355-1.2089-1.3323 3.3043-3.7652 5.5029-7.2533 6.6489-1.1384 8.4974-4.1731 17.476-2.4178 25.386-5.2863-2.045-3.1255-14.912-1.8133-16.924-4.3041-0.47601-4.697 2.9592-6.6488 4.8355 2.5286 2.2163 1.8184 7.2583 0 10.88 0.14608 1.5589 1.0402-0.8311 2.4178 0-2.725 4.9791 2.2515 7.2231-1.2089 10.276 0.55407 1.642 1.1233-1.6118 3.0222-0.60444-1.9015 8.8676 4.6164 15.607 6.0444 25.991-3.4629 1.4683-6.0469-1.3323-9.0666-1.2089-17.531 0.71525-21.498 27.036-13.902 40.498-0.39289 0.61451-1.3902 0.6271-1.2089 1.8133 6.7773 16.635 7.6613 41.711 17.529 56.213-2.5638 22.009 6.8957 37.014 12.089 53.191 1.1661 3.6367 3.9843 6.3063 5.44 9.671 2.249 5.1957 0.93184 11.119 4.8355 15.715 1.8385-1.9896-0.2443-7.9005 3.0222-8.4622 2.5714 4.4023-2.1256 15.302-0.60444 24.18 0.80088 4.6693 4.4527 10.399 5.44 16.317 0.94947 5.6918-0.1083 10.49 1.2089 15.716 2.9995-0.02269 2.0475-3.9944 3.0222-6.0444 2.307 2.866 5.9462 15.506 0.60444 19.345-0.42562-5.6389-8.2682-6.402-9.671-11.487-1.5262-5.5357 2.1508-12.008 0-19.342-4.6844-0.17377-9.8524 15.443-9.671 22.364 0.136 5.173 5.0874 9.4847 7.2533 16.32 2.6117 8.2355 1.6647 20.259 3.0222 30.222 1.3373 9.807 6.0142 17.811 7.8577 24.782 1.6698 0.25942 0.56666-2.254 1.8133-2.4177 4.6214 7.6688 1.9896 21.42 2.4178 32.035 0.1914 4.7373-0.28711 11.212 0 17.529 0.40799 8.996 3.2816 22.024-3.6266 27.2 0.31986-0.48352 0.62962-0.98224 0.60444-1.8134-3.0247 8.7619 4.4099 17.287 3.6266 27.809zm-40.498-464.21c0.00251-1.0804-1.627-3.5158 0-4.2311 1.1988 3.7727 6.8075-0.44829 7.8577 3.0222-1.5942-4.6567 0.96963-7.0493 3.0222-9.671-1.7831-2.045-5.7422-1.9115-9.0666-2.4178-2.8283 2.375-5.2863 11.827-1.8133 13.298zm10.88-6.6488c3.2866-0.8437 6.2434 1.7856 7.8577 0.60445-0.9948-2.788-6.8503-5.7246-7.8577-0.60445zm-12.089 13.902c0.6573 0.23423 1.4506 0.72532 0.60442 0-0.32488-4.624-2.652-10.034-2.4178-15.111-31.924 34.967-58.986 78.021-67.093 134.79-7.0392 20.543-8.3488 45.368-7.2533 69.511 2.1558 47.471 2.4984 97.872 22.364 132.37 1.2416-6.6211-3.8357-12.101-6.0444-18.133-11.061-30.204-11.844-66.859-12.693-104.57-0.22919-10.122-1.3172-19.483-1.2089-29.013 0.47348-42.24 11.401-78.703 24.782-110.61 7.689-18.335 17.854-33.544 28.409-48.355 3.4579-4.8506 6.8679-11.436 13.298-12.693-1.8435 10.953-8.991 19.365-12.693 30.222-19.032 55.792-18.556 129.79-5.44 187.98 1.7327 1.292 1.8058 4.2386 3.0222 6.0444-2.584 3.7803 2.7175 6.261 0.60445 9.671 3.1355-0.70013 4.6214 3.5838 7.2533-0.6019-0.71777-3.8911-5.2687-5.4626-6.6488-9.0691-1.773-4.6341-2.2818-11.52-3.6266-18.133-6.4725-31.796-10.366-71.329-7.2533-108.2 2.0299-24.029 8.1045-44.079 13.298-62.257 3.0826-10.787 5.916-22.526 13.902-27.804-0.92934 14.942-7.5177 35.471-4.2311 52.586 2.6016-3.6644 0.95702-10.162 1.2089-15.716 0.62459-13.746 2.4354-26.631 6.0444-35.662 0.64222-1.1761-1.5741-4.624 1.8133-4.8355 0.39792-1.6572-3.9541-3.468-0.60445-4.2311-0.025185 0.83108 0.28459 1.3272 0.60445 1.8133zm-15.716 93.084c-1.4632-2.1634-0.63466-6.6186-2.4178-8.4622-0.33497 3.5738 1.1736 8.4773 2.4178 8.4622zm-6.0444 47.146c-0.25942-1.9569 0.79584-5.2284-1.2089-5.44 0.17882 2.0375 0.30474 4.1278 1.2089 5.44zm-30.826 103.36c1.161 4.5308 1.4859 9.6811 4.2311 13.295-8.4899-32.048-14.627-77.32-11.484-119.08-4.692 36.579 0.037781 77.66 7.2533 105.78zm38.08-30.222c1.6068 5.3165 0.952 13.388 6.6488 16.32-10.031-25.026-13.94-56.173-19.342-85.83 2.6898 24.336 6.3743 48.584 12.693 69.511zm-7.2533-58.631c4.8607 24.152 7.9434 50.083 16.924 70.115-7.5127-25.127-12.605-52.674-17.529-80.391 0.2317 3.3949 0.93184 6.3214 0.60445 10.276zm-24.782 23.573c-1.7604-11.3-0.31733-23.238-3.0222-32.64 1.3323 8.9432-0.96207 22.53 3.0222 32.64zm6.6488-17.529c-0.88902-2.1508-0.070503-9.1749-1.2089-9.0666 0.31985 3.8029-0.76562 8.3665 1.2089 9.0666zm39.893 65.28c-5.2712-20.936-11.525-46.088-16.32-69.513 3.3698 25.243 8.8777 48.345 16.32 69.513zm-55.004 27.2c-8.5453-26.6-10.258-64.496-10.88-93.688-0.7379 34.816 0.19898 68.42 10.88 93.688zm56.213-88.248v-5.44c-0.83363 0.025173-1.3272-0.28459-1.8133-0.60445 0.55658 2.0626 0.25436 4.9841 1.8133 6.0444zm-45.333 84.622c-8.0164-24.22-10.303-54.168-13.298-83.413 1.6521 29.64 2.9315 60.784 13.298 83.413zm37.475-67.093c-0.97717-2.2465-0.33244-6.1149-2.4178-7.2533 0.015114 2.8232 1.8007 7.0417 2.4178 7.2533zm-37.475 47.751c1.0905 5.1453 1.6975 11.945 4.8355 13.298-6.0847-18.7-7.7343-41.83-12.089-62.257 1.8939 16.134 4.1706 34.405 7.2533 48.96zm41.102-31.431c1.9569 7.5253 1.7705 16.26 6.6488 21.155-3.808-11.706-5.8026-25.225-10.276-36.266 0.24178 6.0343 2.5588 11.003 3.6266 15.111zm-13.298 21.155c-2.7225-11.182-4.9489-22.855-7.8577-33.849 1.7101 12.192 3.1129 24.691 7.8577 33.849zm-21.76 9.671c0.86635 3.677 0.31229 7.903 3.0222 10.276 0.88651-3.5385-1.2744-7.7368-2.4178-12.089-2.9189-11.096-5.2259-24.472-7.2533-36.266-0.032738-0.36771-0.090675-0.71526-0.60444-0.60445 0.58681 12.95 4.4149 26.626 7.2533 38.684zm7.8577 7.2533c-2.2112-13.917-7.1979-30.27-9.6711-45.938 1.7756 16.761 4.7298 32.343 9.6711 45.938zm0-24.178c0.20146-4.0749-1.0779-1.3474-0.60445 1.2089 1.2089 7.2533 3.3597 13.565 5.44 19.946 0.020134-6.3164-4.0447-13.65-4.8355-21.155zm-32.64 23.573c0.035248-2.657-0.24431-4.9967-1.2089-6.6514-0.035263 2.657 0.24178 4.9967 1.2089 6.6514zm52.586 0.6045c1.6244 0.79582 3.2136 1.6244 4.8355 2.4178 0.45836-2.5639 1.2945-4.7499 2.4178-6.6488-2.2818-4.692-7.9056-0.96712-7.2533 4.2311zm-4.2311 2.4178c2.3145 0.20146 4.6064 2.997 6.0444 0.60443-2.5563-0.26445-3.1884-2.453-4.8355-3.6242-0.25941 1.1484-1.302 1.5162-1.2089 3.0197zm-47.751 0c0.13601-1.025-0.6825-1.496-0.60442 0 1.5338 10.96 5.6188 19.365 7.2533 30.222 1.632 0.18134 1.0855 2.5437 2.4178 3.0222-2.1256-9.6131-6.8604-21.71-9.0666-33.244zm8.4622 41.102c-2.5991-9.8952-6.3491-18.634-9.0666-28.409 2.2389 10.253 3.9238 21.06 9.0666 28.409zm85.83 2.4177c-0.64726-6.805-0.11333-14.794-2.4178-19.946 1.3575 7.9384-0.38282 14.514 2.4178 19.946zm-86.435 4.2311c0.55155-2.5664-0.98725-3.0424-2.4178-3.6241 0.37275 1.6396 1.1988 2.8283 2.4178 3.6241zm2.4178 16.32c0.45333-1.7201-1.287-4.2764-2.4178-2.4177 1.0653 0.54649 0.99733 2.2263 2.4178 2.4177zm4.2311 15.716c1.9292 0.51628 1.8687-0.95203 3.0222-1.2089 0.54399-3.3622-1.4154-4.2235-3.0222-5.44-1.219 2.5664-1.4985 4.8683 0 6.6489zm6.0444 3.6266c2.4505 1.9342 8.7518-3.0146 6.0444-4.2311 0.33244 3.755-5.9512 0.89909-6.0444 4.2311z" fill="inherit"/><path d="m5.7414 50.129c4.7852-11.318 3.541-26.872 4.2311-41.102-0.60444 11.945-5.6011 25.754-16.924 22.969 0.89659-2.4757 1.909 0.18135 3.0222 0 10.376-1.6849 11.646-16.693 12.693-29.013 0.79333-0.72532 0.94947-0.23422 1.8133 0 0.6674-6.0293-0.38533-9.9456-3.0222-13.902 0.94696-2.6772 1.1157-6.1376 3.6266-7.2533-0.80592 4.6844 1.0553 9.6308 3.0222 13.298-2.8938 9.5275-4.0825 27.953-2.4178 42.915 0.51124 4.5862 0.54147 5.5155-0.60445 9.671-3.0071 10.91-1.4909 24.432-3.0222 34.453-1.36 8.8878 1.1082 20.987-1.8133 29.618-0.74295 2.1987-2.9643 4.7902-1.2089 9.0666 1.5992 0.19894 5.7321-2.1785 6.0444 0.60444-7.1097-1.4658-7.485 3.7979-10.88 6.0444 0.38281 2.4379 2.3775 3.2614 2.4178 6.0418-1.5061 1.4633-3.8306-1.2718-5.44-1.2064-2.6067 0.10074-5.1982 2.9189-7.8577 3.0222-3.4806 0.13348-6.7345-3.0826-9.671-3.0222-3.0675 0.057938-4.9136 3.1104-7.2533 3.0222 3.7249-8.0315 10.978-1.7529 16.924-1.8158 4.0976-0.042801 5.994-3.8332 10.276-2.4178-0.99732-3.7702-5.2712-2.1432-9.0666-2.4178-6.4448-0.46593-8.7241-5.1982-12.693-9.671-4.4049 0.57673-6.3013-1.355-8.4622-3.0222-6.1527-20.644-5.4274-48.166-12.693-67.697-2.5512-0.93941 0.13348 3.3572-2.4178 2.4178-1.5892-7.276-2.5966-15.134-9.671-16.924-3.468-12.781-4.1278-24.062-9.671-33.849-2.8534-5.037-9.9884-6.6765-9.0666-13.902 2.6419 2.1911 3.818 5.853 7.2533 7.2533 0.48355-2.0979-0.89911-2.3221-0.60445-4.2311 7.2684 11.872 8.8576 29.426 16.924 40.498 14.325 4.4124 14.653 22.823 27.2 29.013-0.29214 1.904 1.8562 1.3676 1.2089 3.6266 5.0168 0.82859 4.833 6.8528 9.0666 8.4622-2.0752 2.375 2.0173 2.4581 1.8133 4.8355 6.4574 2.5739 13 4.1127 18.133-0.60445 0.42061-8.7745-0.49614-17.801 1.8133-21.76-1.8612 0.42311-1.161 0.42311-3.0222 0 0.60444-1.8738 4.5686-4.2109 0-3.0197zm-37.475 45.333c-1.6295-5.4727-1.5992-13.955-0.60443-21.76 0.77821-6.0998 4.4678-13.534 0-16.924 1.4305 10.656-6.7899 27.779 0.60443 38.684zm16.924-15.111c5.1428 0.29466 4.7247 6.1527 9.671 6.6488 1.7982-2.3901-3.3597-2.0022-3.0222-4.8355 6.2635 1.2895 11.492-0.97717 15.111-1.2089v-4.2311c-3.3294 0.73792-4.5257 3.6795-7.2533 4.2311-11.401 2.3095-17.675-6.3265-19.342-15.715-2.3976 0.38281-1.7302-2.2994-4.2311-1.8133 4.0775 4.5862 5.0874 12.242 9.0666 16.924zm15.716 6.6488c-4.5862 1.8612-6.7017 6.193-11.484 7.8577 0.002519-1.2643 3.2942-2.2717 1.8133-3.0222-4.0749 3.2312-6.742 8.2984-12.693 6.6488-0.30473 1.899 1.423 2.4707-0.60444 3.0222-5.4551-4.0649-2.244-14.731-3.6266-21.76-2.5487 7.825-1.2517 22.178 2.4178 27.804-7.1097 2.2264-3.9566 11.87 4.2311 10.276 0.21661 9.122 20.637 13.106 21.76 3.6266 0.2594 0.97466-2.2541 2.0299-2.4178 0.60444 0.89659-9.0288 1.8914-16.232-1.2089-24.178 1.0049-3.0348 7.0291-4.2412 6.0444-7.2533-3.2111 1.7151-5.3266 7.4472-9.0666 6.6488 1.6244-5.0294 9.6081-6.9057 9.671-11.484-4.1077 3.1481-8.8223 8.9029-13.298 9.671 1.5866-3.3244 8.709-7.3087 8.4622-8.4622zm-18.133 3.6266c1.8586-0.45082 1.161 1.6597 3.0222 1.2089 0.20652-2.7124 1.093-4.8003-2.4178-4.8355 0.012585 1.4255-1.0427 1.7806-0.60445 3.6266zm19.946 7.8577c0.62457-1.5892 2.3976-2.0349 3.0222-3.6266-1.6144 0.23419-4.3469 2.4555-3.0222 3.6266zm-30.222 12.089c0.16118-2.38-0.23422-4.1983-1.8133-4.8355 1.428 2.0349-1.1887 4.3746 1.8133 4.8355z" fill="inherit"/><path d="m-35.965 118.43c-1.2643 1.3549-3.0197 2.2163-4.8355 3.0222 0.74295-1.8763 2.5865-2.652 4.8355-3.0222z" fill="inherit"/><path d="m-54.703-70.759c1.8637 3.9792 4.2638 7.422 7.2533 10.276 1.9493 0.54149 0.84872-1.972 1.8133-2.4178 1.3726 0.64224 0.22918 3.7979 0.60444 5.44 1.2391-0.97718 1.5237-2.9089 2.4178-4.2311 1.2139 1.0603-0.81852 3.9818-0.60444 6.0444 1.0074-0.80592 0.9394-2.6872 1.8133-3.6266-1.2744 6.9586 5.0143 8.7669 6.6488 14.507-0.70015 0.50874-1.6194 0.79835-3.0222 0.60444 0.6271 10.656 7.6915 14.874 9.0666 24.782 12.867 9.5955 16.844-11.444 24.782-13.902-4.9211 5.5583-7.7419 13.212-14.507 16.924 0.18133 3.604-0.24681 6.6035-1.2089 9.0666-1.904 0.29214-0.45333-2.7704-1.8133-3.0222-1.3575 0.25437-0.015106 3.206-1.2089 3.6266-6.4726 2.7124-10.187-1.5917-15.111-1.8133-3.0146-7.2634-2.108-18.443-10.88-19.946-0.90162-3.5284-2.8258-6.0394-3.0222-10.276 1.3172-0.11081 1.9241 0.49363 1.8133 1.8133 0.20903-3.4428 1.4683-3.2035 3.0222-6.6488-1.2089-1.8108-3.7072-2.3372-5.44-3.6266 2.72-10.676-6.1099-20.506-5.44-30.826 4.4804 1.7655 4.8204 7.6714 9.671 9.0666-4.6139-32.008 39.14-45.776 50.168-18.738-0.10326 1.3121 2.1458 0.27451 3.0222 0.60444-1.6773 9.457 5.3946 23.047-0.60446 29.618 11.419-4.4174 14.217-27.273 9.0666-42.915-1.2517-3.8029-4.498-5.8605-4.2311-9.671-3.5032-4.1681-5.4198-5.2385-10.276-1.8133-2.1307-5.6566 0.6674-11.348 5.44-12.089-0.45585 3.1708-4.4678 2.7855-4.2311 6.6488 1.1056-0.32236 5.3619-2.6822 7.8577-3.6266 3.541 2.7301 3.954 2.6872 8.4622 2.4178-0.022673-4.2084-1.8763-6.5859-4.8355-7.8577-2.8837-0.46591-2.6822 2.1533-5.44 1.8133 0.53645-4.0296 6.9385-4.211 9.0666-1.8133 1.3399 0.33245 0.86134-1.1535 1.8133-1.2089 4.0044 0.6271 8.3766-0.76312 12.693 0.60443 38.883 12.326 66.448 40.457 93.084 67.093 27.479 27.479 49.667 60.958 67.697 92.479 9.4948 20.526 17.184 42.857 24.18 65.884-1.4456 7.2911 3.2791 13.247 2.4177 19.946-0.84117 6.528-5.0622 10.764-7.2532 16.924h-4.8381c0.093201-1.5061-0.94946-1.8712-1.2064-3.0222-0.32488-2.9441 2.4102-2.8283 3.0222-4.8355-1.6169-1.4079-3.9692-2.0778-5.44-3.6267 0.060455-1.8738-0.74046-2.8862-1.2089-4.2311-13.806-18.176-45.794-24.125-74.346-24.178-10.767-0.020149-19.319 3.2489-25.386 9.671-0.4483 7.009-7.8955 7.0166-9.0666 13.298-3.6065 2.0576-6.7244 0.43066-9.6736-1.2089 0.41304-3.2136 4.9892-2.2641 6.0444-4.8355-0.85124-3.1078-2.0954-8.0088-4.8355-12.089-1.6295-2.4253-7.1097-7.7066-8.4622-7.2533-3.2061 1.0729 3.8709 8.2758 4.8355 10.88-5.853 11.27 4.7524 15.373 6.6514 24.18 6.9385 4.085 14.975-3.0146 19.342 0.6019-4.4426 2.2112-8.1322 3.0071-6.6488 8.4622-12.263-3.74-48.151 6.46-39.291-9.0666-0.11584-3.7148-2.0702-5.586-4.2311-7.2558-6.0343 3.2338-8.7316 9.8071-16.32 11.487-0.33243 1.3398 1.156 0.86134 1.2089 1.8133-3.8608 6.3265-3.944 19.886-10.88 22.969 2.385-11.333-2.6394-20.269-4.2311-29.618 3.8306 6.4448 6.5657 13.985 7.2533 23.571 3.3471-7.7948-2.7225-16.058-3.0222-24.178 3.9314 3.3194 3.677 10.827 6.0444 15.716 1.2643-6.1074 0.070515-14.978-3.6266-18.133-1.9015-0.6926-1.4683 0.94947-2.4178 1.2064-3.5486-3.8332-9.2102-2.2893-13.902-4.2311 1.0376-1.1787 3.1305-1.3046 5.44-1.2064 0.57421-21.815 9.9481-39.316 10.276-59.84 0.07807-4.8431-2.2138-9.5754-2.4178-14.507-0.16371-3.9968 1.8284-8.3589 2.4178-12.693 1.4229-10.474 0.9268-20.37 2.4178-31.431 0.86132-2.6746-2.045-1.5816-1.8133-3.6266 8.1071-14.406 7.8426-50.808-16.32-45.333-1.1963-0.82102-2.8132-1.2164-3.0222-3.0222 2.1332-3.2791 4.3218-4.3746 3.6266-7.8577 2.045-0.03022 2.6218 1.4078 3.6266 2.4178 0.23926-2.8585-2.4807-2.7578-1.8133-6.0444 1.5136-1.5212 2.3724 0.6926 4.2311 0.60444-0.20147-2.2163-2.3951-2.4404-1.8133-5.44 1.7075-0.50118 1.5665 0.85125 3.0222 0.60443-0.72282-4.7726-0.25436-4.9287 1.2089-8.4622-1.3675-7.0317-1.2064-13.824-1.2089-21.155 6.1653 4.0699 8.3236 12.87 10.88 20.551 5.6792 17.068 9.0263 39.15 7.2533 62.257-1.2618 0.34755-1.7252 1.4985-3.6241 1.2089-4.0649 8.17-2.783 19.332-3.6266 32.035-0.88902 13.396-4.6617 25.308-1.2064 39.893 3.337-0.54904 11.963-4.08 18.133-1.8133-3.8508 3.6065-11.653 3.2564-17.529 4.8355-0.95451 1.2618-1.2542 3.1809-1.2089 5.44 16.131 0.66238 23.004 7.4951 33.244 13.298 2.1684-7.3716-16.819-6.8352-17.529-13.298 3.2589-5.1831 11.134 1.4859 15.111-0.60443-7.1072-5.8202-20.085-1.1258-29.618-0.60444 0.95702-4.488 7.9383-3.7475 13.902-4.8355 5.3065-0.96963 8.4446-2.443 13.905-1.2089 1.2441-0.16371 0.14355-2.6772 1.8133-2.4178-5.1403-3.4982 0.19643-13.308-3.6266-16.32 3.1784-3.672 1.9241-11.779 3.0222-17.529-3.0499 6.0167-1.8763 16.257-6.0444 21.155-2.7452-5.1931-3.1582-11.968-4.8355-18.133-4.158-4.3016-5.8102-11.114-9.671-15.715 3.4176-40.931 1.1535-80.413-13.902-106.99-1.977-3.2665-7.7721-7.0795-4.8355-11.484 9.9632 4.2336 17.05 14.23 23.573 24.178 6.2157 9.4771 13.134 19.569 17.529 30.222 2.38 5.7699 3.6644 11.333 6.0444 18.133 0.82859 2.3674 2.7603 4.2613 3.6266 6.6488 2.3296 6.4146 3.5259 14.59 5.4374 21.76 6.4071 24.022 10.253 48.096 12.091 74.951 0.72282 10.59 2.594 20.705 0.60191 30.826-1.3474 1.6748-2.322 3.7198-2.4178 6.6488 1.229 0.78832 4.901-0.020119 6.6514-0.60442 0.25437-2.4707-1.9896-2.443-1.2089-5.44 0.18889-2.8736 2.0223 1.0804 3.6266 0.60445 0.36269-1.0779-1.773-2.511 0-3.0222-0.15613-1.2567-2.657-0.16369-3.0222-1.2088-4.148-87.578-20.108-167.83-71.324-207.93 0.97466-2.9013 2.2969-4.2135 1.2089-7.8577 1.6698-0.2594 0.5692 2.254 1.8133 2.4178 1.899-0.84119-0.83111-2.9819 0.60444-3.6266 1.9493-0.53896 0.84875 1.972 1.8133 2.4178 1.7378-2.992 2.6998-0.007553 5.44-1.2089 17.279 10.082 35.423 18.04 50.773 30.222 7.5606 6.0016 14.859 13.653 22.364 20.551 33.924 31.182 61.507 69.339 82.204 114.24-0.27196 2.8938 0.65736 4.5837 2.4178 5.44v3.0222c0.52638 0.88401 0.90414 1.9141 2.4178 1.8133-0.88908 5.8606 4.7448 12.046 4.2336 17.529 2.9315 1.0956 0.6825 7.3767 4.231 7.8577-3.264 3.06 3.1129 4.6466 0 7.2533 0.19142 1.4179 1.8713 1.3524 2.4178 2.4178-2.9643 3.4 2.0627 4.3142 0 8.4622-0.10074 1.3096 2.1458 0.272 3.0222 0.60444-0.042831 1.773-1.3827 2.2465-2.4178 3.0222 3.0902 2.9315 2.0123 4.3797 1.8133 9.0666 1.1333 1.2844 4.823 0.012611 5.44 1.8133 1.1434-0.98726-2.4404-2.3624-2.4178-4.2311-7.5051-60.701-37.125-107.29-69.513-145.07-24.102-28.117-50.383-56.775-84.015-75.555-11.228-6.2686-23.53-13.764-37.475-13.902 0.55156 2.0677 1.4935 3.745 1.8133 6.0444-3.614 2.8182 0.43823 6.5254-3.6266 7.8577 1.2391 2.6016 1.7202 6.2031-0.60444 7.2533 0.26445 0.74295 0.77318 1.2416 1.8133 1.2089-0.042812 16.262-1.3852 36.342-12.693 45.938-1.4179 0.19392-2.2692 0.9545-4.2311 0.60443-0.61199 3.2312 1.5665 3.672 2.4178 5.44-3.3395 4.5308-9.127 6.2635-8.4622 13.298-7.2709 1.6395-8.8122 11.643-16.924 10.88-5.8429-0.54904-6.5783-6.6262-10.276-10.88-2.521 1.9972-5.858 0.050373-6.6488-3.0222 3.0927-0.23926 4.5132 1.6874 7.8577 1.2064 4.0649-0.58177 7.9005-5.1755 12.089-4.8355 0.012587 1.423-1.0427 1.7806-0.60444 3.6266 3.5284-0.70014 0.50621-7.956 4.2311-8.4622-0.11335 3.8256-1.9443 10.62 0.60443 13.298 2.5613 0.14354 1.0653-3.7702 3.6266-3.6266 0.43823 1.8486-1.0426 1.7781-0.60444 3.6266 4.4754-0.25942 0.94696-3.7752 0.60444-6.0444 2.2188-0.002514 2.3145 2.1156 3.6266 3.0222-0.43066-7.0795 6.7798-6.5154 6.6488-13.298-1.297-1.2592-1.501 3.7072-3.6266 3.6266-2.7729-0.65229-5.9361-0.91422-5.44-4.8355 2.6167-0.20148 1.4884 3.3471 4.2311 3.0222 2.2969-0.12341 2.0929-2.7427 3.0222-4.2311-0.21407-0.79332-1.0628-0.94947-1.2089-1.8133-2.9441-0.27704-4.158 3.5561-6.6488 1.8133 1.0427-6.6136 9.1044-6.2081 12.693-10.276-1.1837-6.9762-5.7246-13.275-1.2089-19.342-2.2314-1.224-4.3897 4.7272-7.2533 3.0222-0.3803-3.4025 3.478-2.5663 4.2311-4.8355-3.6544-19.03-31.935-19.095-40.498-4.8355 2.7024 3.1406 5.2989 6.3869 6.0444 11.484-4.1001-0.32992-2.8257-6.0394-6.0444-7.2533 0.010071 8.9583 1.4431 18.828 3.6266 24.178-4.3066-2.7905-13.466-5.8505-18.143-10.27zm129.95-18.738c3.4579 2.9895 7.3213 9.593 10.276 9.0666 1.7755-1.8763-2.1961-3.5939-3.6267-4.8355-5.6414-4.8934-13.184-11.311-19.342-12.693 3.8155 2.657 8.6712 4.9866 12.693 8.4622zm-77.368 33.849c1.0527-0.045338 1.8788 0.136 2.4178 0.60444-0.59688-2.4102 1.8058-1.8209 1.2089-4.2311-2.1986 0.21909-3.4075 1.428-3.6266 3.6266zm-25.386 19.342c1.5363 3.5712 9.5703 6.8554 13.902 3.6266-1.8486-0.43821-1.7781 1.0427-3.6266 0.60445-2.2238-1.8058-1.015-7.0442-4.2311-7.8577-1.4557 1.768-3.4932 2.9567-6.0444 3.6266zm65.884 6.6488c-0.17378-1.8385 0.095707-4.1253-1.8158-4.2311 0.46845 1.5464 0.60695 3.4277 1.8158 4.2311zm-51.377 0c-5.1352 0.50118-8.7719-0.49614-12.089-1.8133 0.88148 4.0019 10.089 6.0897 12.089 1.8133zm62.862 36.871c-0.24682 5.3115-2.4379 10.464 0 13.298 1.2064-11.875 1.5061-22.752 0-35.662-0.24682 6.878 0.32742 15.343 0 22.364zm-6.0444 5.44c2.9114-6.1124 2.7502-18.191 1.8133-23.573 0.080608 8.2431-1.7428 17.461-1.8133 23.573zm9.671 13.902c0.98977-10.716 2.2767-27.94 0-36.266 0.90163 13.723-0.92428 26.691 0 36.266zm48.355-12.089c4.9665 21.699 8.5377 48.962 9.0692 69.511 0.075554 2.9618-0.35512 7.6462 2.4178 9.671 0.38533-25.817-4.3646-57.248-10.88-80.391-0.13348-0.47096-0.50622-0.70268-1.2064-0.60444 0.088165 0.71022-0.11079 1.7151 0.5994 1.8133zm35.058 67.697c0.31732 2.8862-1.5942 7.218 1.8133 9.0666-0.29213-28.721-10.401-52.863-16.924-77.368-0.7757-0.03274-0.83867-0.77569-1.8158-0.60444 5.6465 21.082 14.381 45.726 16.927 68.906zm-17.529 10.276c1.4431-12.494-1.1661-26.643-3.0222-39.893-1.8562-13.242-4.5257-26.706-9.0691-36.871 6.1351 23.311 8.7291 51.705 12.091 76.764zm-22.364-73.137c6.397 23.14 6.324 52.279 9.6736 76.764 3.0927-1.3398 0.7354-5.5382 0.60192-7.8577-1.4078-24.842-3.4176-50.375-9.0666-70.115-0.13348-0.47096-0.50623-0.70267-1.2089-0.60444v1.8133zm48.355 72.533c-1.0301-25.162-8.5931-49.028-16.317-69.511-0.007538-0.60947-1.0603-0.7606-1.2088 0 8.2178 20.79 12.363 45.66 17.526 69.511zm-22.364-18.738c0.19898 1.564 0.50876 3.6619 0.60446 5.44 0.23672 4.4074-1.9745 10.991 3.0222 13.298-2.0249-20.745-3.7979-46.978-11.487-64.071 2.9567 13.517 5.9512 30.31 7.8602 45.333zm6.6489 12.089c0.204 1.6824-0.3954 6.13 2.4178 6.6488 0.4911-21.848-5.4979-42.454-10.273-61.048-0.13599-0.47097-0.50623-0.70266-1.2089-0.60444 5.246 15.59 7.0795 38.629 9.0641 55.004zm10.276-49.564c-0.39037-1.2592-0.97464-5.4173-2.4178-3.6266 1.5464 0.46845 0.13348 3.8961 2.4178 3.6266zm24.782 42.915c1.3625 5.8983 0.54656 12.9 4.8355 17.529-3.1758-20.4-9.9909-42.394-16.927-61.048-0.007553-0.60949-1.0577-0.76059-1.2063 0 4.3621 13.489 9.8498 28.62 13.298 43.52zm-97.315-3.0222c2.9442-3.1078 3.1557-8.9105 3.6266-13.902 0.71021-7.5454 1.0024-15.846 1.8133-22.969-0.13348-0.47097-0.50621-0.70268-1.2089-0.60445-1.1006 12.802-3.1003 24.704-4.2311 37.475zm83.413-12.089c2.1256 4.1052 2.5865 9.593 3.6266 15.111 0.94949 5.0521 1.0402 11.336 4.2311 14.507-1.7504-17.39-6.3794-37.14-12.693-51.982 1.3071 7.4472 5.1176 15.31 4.8355 22.364zm13.902 30.826c-3.1783-16.972-7.6033-37.934-14.509-53.191 5.4727 17.096 8.0088 37.123 14.509 53.191zm-15.715-15.111c0.81348 4.3898-0.33495 10.507 3.6242 13.298-1.9871-12.718-3.9163-30.736-9.6711-41.706 1.7403 9.0868 4.2563 18.75 6.0469 28.409zm27.804 9.6711c0.9671 3.9288 0.4659 9.3386 4.2311 11.484-3.1507-14.781-7.8628-33.239-13.298-47.751-0.007523-0.60946-1.0578-0.76059-1.2063 0 4.3344 10.913 7.553 25.22 10.273 36.266zm-111.22-28.409c-0.7883-2.5638 1.841-4.7877-0.60445-5.44-1.5287 0.94947-1.773 5.1176 0.60445 5.44zm105.78 27.804c0.59688 3.07 0.090714 8.918 4.2311 9.671-2.6721-13.046-5.9664-30.703-12.089-42.311 2.2742 10.691 5.8052 22.1 7.8577 32.64zm6.6489-18.133c-1.8184-1.0024-0.25946-5.382-3.0222-5.44 0.77068 1.6698 1.1157 6.9133 3.0222 5.44zm6.6488 8.4622c-1.3449-3.0877-0.98978-7.8754-3.6266-9.671 0.83618 3.5964 0.93694 7.9282 3.6266 9.671zm13.298 14.507c-1.6874-7.5782-3.7828-14.753-6.0419-21.76-0.007553-0.60948-1.0603-0.7606-1.2089 0 2.8585 6.8125 3.4202 15.919 7.2508 21.76zm-11.484 10.276c-2.249-10.245-3.9893-20.994-8.4622-29.013 3.3471 9.1447 3.3521 21.631 8.4622 29.013zm-155.95-24.782c2.4304 0.44327 5.7397 1.0401 8.4596 0-2.9945 0.46591-7.087-2.657-8.4596 0zm71.928 18.133c-1.3852-3.8583-0.55408-15.156-3.6241-19.342 1.4482 6.2056-0.98724 16.3 3.6241 19.342zm88.853 9.0666c-1.6295-8.6435-2.1936-18.357-6.6488-24.178 2.5512 7.7242 2.2893 18.262 6.6488 24.178zm-157.76-22.969c-1.4255 0.012573-1.7806-1.0427-3.6266-0.60444-0.76563 3.1708 3.0121 1.3575 3.6266 0.60444zm10.88 2.4178c-2.647-0.59185-6.6211-3.0298-9.671-1.2089 3.8332-0.59436 7.1803 2.4706 9.671 1.2089zm-21.155 24.178c-0.33749 2.0778-1.8687 7.1752 2.4178 7.2533 0.10326-0.90415-0.21407-2.2314 0.60444-2.4178 9.0817-2.6319 14.486-9.9859 22.364-12.089 0.23926-1.0402-0.8966-1.5489 0-1.8133 0.87896 0.32994 3.1229-0.70516 3.0197 0.60443-7.3465 7.6966-18.942 10.228-26.595 18.738-0.37526-0.64222-2.526-3.8558-2.4178-1.2089 3.6493 5.4173 14.219 3.9137 15.111 12.089 8.0441-3.8407 13.172-10.6 20.551-15.111 0.34756-1.0628-0.73037-3.5511 0.60444-3.6266 0.60445 0.002533 0.71778-0.48859 1.2064-0.60443 2.3296 0.29215 0.73793 4.5006 3.0222 4.8355 4.7499-5.382-0.027695-14.696-3.6266-17.529 7.2936-1.3927 6.193 10.694 8.4622 16.32 0.9797-1.2391 0.47347-3.9616 1.8133-4.8355 0.40549 5.5256-0.96961 12.215-5.44 10.88-0.31229-2.3346 3.4831-2.3825 1.8158-4.2311-2.1659 1.2592-6.2434 0.60694-7.8577 2.4178 1.1232 1.2945 3.7425 1.093 4.2311 3.0222-1.6849 2.1181-0.26191 6.3189-1.2064 10.276 0.71022 0.89912 1.5186 1.7076 2.4178 2.4178 9.9053-0.91924 27.739 1.9946 30.824-1.8133-4.8582 0.32993-7.9509-1.1887-12.089 0-0.36013-1.9292 1.1333-1.8687 0-3.0222-3.5788-0.34253-4.5131 5.1352-7.8577 3.0222 1.6396-2.793 4.9161-3.949 8.4622-4.8355 0.27955-5.4374-4.8255-5.8882-6.6488-9.671-1.7378-3.604-0.060448-6.3894-0.60446-10.88-0.99229-8.1826-7.223-13-11.487-18.133-3.1154 3.128-5.586 6.9057-9.0666 9.6711-4.5434-3.9012-11.56-7.9333-19.342-6.6489-0.24178-2.254 3.7752-0.25436 4.2311-1.8133-3.5158-0.91676-8.1725-0.69259-11.484-1.8133-0.19895 6.1401-4.4426 14.431-5.4349 20.551zm177.1-2.4178c-0.98221-4.2563-0.56415-9.9153-3.0197-12.693 0.99988 4.2361 0.080627 10.394 3.0197 12.693zm-113.03 9.6711c1.8385-0.57926 3.6166-1.219 5.44-1.8133-0.65733-3.954-4.357 0.62712-5.44 1.8133zm125.72 6.6488c0.2468-1.768 1.5816-2.448 2.4177-3.6241-2.4051-0.41555-2.113-3.5284-4.8355-3.6266-5.1277 0.90916-2.6998 8.0894 2.4178 7.2508z" fill="inherit"/></g><path d="M269.08 -99.36L273.08 -100.36" fill="none" stroke="#6d6d6d" stroke-width="5"/></svg>