<?xml version="1.0" encoding="UTF-8" standalone="no"?><svg xmlns="http://www.w3.org/2000/svg" xmlns:xlink="http://www.w3.org/1999/xlink" fill="#000000" height="84.4" preserveAspectRatio="xMidYMid meet" version="1" viewBox="0.0 0.0 241.9 84.4" width="241.9" zoomAndPan="magnify"><g id="change1_1"><path d="M199.709,74.875H32.688C14.709,74.875,0,60.165,0,42.187v0C0,24.209,14.709,9.5,32.688,9.5h167.021 c17.978,0,32.688,14.709,32.688,32.688v0C232.396,60.165,217.687,74.875,199.709,74.875z" fill="#d78e0c"/></g><g id="change1_2"><path d="M199.709,84.375c-1.381,0-2.5-1.119-2.5-2.5s1.119-2.5,2.5-2.5c20.505,0,37.188-16.682,37.188-37.188 S220.214,5,199.709,5c-1.381,0-2.5-1.119-2.5-2.5s1.119-2.5,2.5-2.5c23.262,0,42.188,18.925,42.188,42.188 S222.971,84.375,199.709,84.375z" fill="#d78e0c"/></g></svg>