<?xml version="1.0" encoding="UTF-8" standalone="no"?><svg xmlns="http://www.w3.org/2000/svg" xmlns:xlink="http://www.w3.org/1999/xlink" fill="#000000" height="905.2" preserveAspectRatio="xMidYMid meet" version="1" viewBox="-0.4 -1.4 529.3 905.2" width="529.3" zoomAndPan="magnify"><g id="change1_1"><path d="M196.987,617.803c11.015,28.958,1.106,54.731-11.472,80.116c-11.347,22.901-23.112,45.584-31.979,69.656 c-8.669,23.535-13.198,47.713-8.569,72.397c4.239,22.606,15.504,41.622,36.298,53.587c0.558,0.321,1.166,0.555,2.02,0.955 c-2.303,1.307-3.486,0.315-4.645-0.136c-17.231-6.708-34.097-14.142-49.098-25.201c-2.277-1.679-4.453-3.539-6.886-4.953 c-20.408-11.862-37.616-27.497-52.518-45.584c-17.652-21.427-32.664-44.517-39.31-71.963c-8.697-35.915-9.454-72.058-2.545-108.411 c6.778-35.665,23.071-67.206,42.656-97.081c15.046-22.951,31.206-45.176,43.134-70.007c12.565-26.157,16.647-53.395,10.258-82.056 c-1.747-7.836-3.749-15.373-7.612-22.449c-2.334-4.276-1.275-5.79,3.462-5.829c6.26-0.051,11.457,2.783,16.415,6.225 c25.215,17.506,36.534,43.112,42.296,72.076c3.645,18.321,3.634,36.66,1.682,55.15c-0.941,8.91-1.824,17.888-0.924,26.897 c0.454,4.545,1.808,8.814,4.064,12.744c3.687,6.424,9.802,7.883,15.524,3.287c6.343-5.095,9.481-12.021,10.843-20.113 c5.94-35.286-2.335-69.211-9.936-103.102c-5.894-26.281-9.306-52.788-9.357-79.641c-0.069-36.409,13.446-68.493,33.267-98.256 c5.806-8.718,12.068-17.156,18.502-25.427c11.875-15.266,22.484-31.359,32.488-47.886c13.922-22.998,19.689-47.538,16.294-74.498 c-2.091-16.606-5.982-32.447-14.493-46.788c-9.034-15.224-21.953-26.074-39.135-31.479c-3.444-1.083-8.879-1.635-7.877-6.586 c0.981-4.845,6.451-3.281,9.738-2.917c20.962,2.323,39.105,11.165,54.876,25.017c8.162,7.169,15.276,15.264,21.656,24.077 c13.792,19.05,25.503,39.157,31.763,62.011c5.44,19.864,6.583,40.087,5.233,60.638c-2.573,39.169-13.917,76.343-24.47,113.771 c-3.592,12.739-7.469,25.591-8.005,38.988c-0.41,10.227,0.625,20.317,5.639,29.541c5.588,10.28,14.797,14.577,26.009,14.575 c10.254-0.002,15.748-7.046,19.666-15.321c7.052-14.896,13.655-29.908,12.687-47.084c-0.574-10.193-2.33-20.081-5.205-29.825 c-0.351-1.189-1.672-2.505-0.327-3.617c1.112-0.919,2.516-0.206,3.758,0.309c9.219,3.825,15.238,11.049,20.238,19.262 c19.318,31.729,24.496,66.816,23.78,103.105c-1.052,53.275-13.964,104.269-30.541,154.522 c-7.286,22.087-15.018,44.055-20.012,66.823c-2.296,10.467-3.406,20.953,0.153,31.515c2.327,6.906,7.196,11.005,13.395,13.93 c3.199,1.509,6.503,1.126,9.638-0.403c5.417-2.642,9.395-6.761,12.277-12.023c8.658-15.809,13.043-33.146,16.514-50.525 c4.915-24.604,8.125-49.524,7.587-74.753c-0.266-12.482-0.487-24.964-0.647-37.448c-0.026-2.034-0.974-4.651,1.694-5.728 c2.77-1.118,4.768,0.662,6.483,2.584c6.86,7.689,11.663,16.66,14.931,26.292c7.702,22.698,11.44,46.252,11.917,70.099 c0.505,25.228-3.867,49.978-11.17,74.142c-3.783,12.519-5.79,25.261-5.579,38.326c0.088,5.44,1.34,10.524,5.371,14.607 c6.306,6.388,14.679,6.333,20.531-0.436c6.544-7.569,8.614-17.116,10.937-26.426c4.395-17.612,1.761-34.615-5.222-51.125 c-0.515-1.217-0.956-2.48-1.275-3.76c-0.345-1.385,0.064-2.663,1.147-3.611c1.302-1.139,2.459-0.282,3.62,0.382 c4.312,2.467,7.457,6.276,10.11,10.208c5.76,8.537,12.228,16.656,16.765,25.968c11.161,22.908,13.435,47.009,9.519,71.949 c-7.504,47.802-31.417,85.347-69.83,114.492c-30.073,22.817-62.989,40.05-98.081,53.447c-3.831,1.463-7.917,2.29-11.927,3.233 c-1.237,0.291-3.091,1.57-3.734-0.742c-0.515-1.853,1.502-1.685,2.423-2.193c18.38-10.147,35.908-21.64,51.813-35.304 c21.843-18.764,37.884-41.447,43.323-70.392c2.453-13.054,0.6-26.008-3.751-38.313c-5.19-14.677-11.008-29.201-20.524-41.827 c-0.2-0.265-0.326-0.605-0.569-0.813c-2.023-1.733-3.561-5.632-6.474-4.077c-1.838,0.981,0.245,4.39,0.814,6.675 c1.787,7.188,4.095,14.293,5.249,21.581c2.023,12.775-4.637,22.058-14.675,28.261c-7.786,4.811-16.458,3.25-24.365-1.689 c-10.789-6.738-19.116-15.877-26.375-26.143c-20.237-28.618-35.556-59.734-44.504-93.554 c-10.843-40.983-10.907-82.346-0.907-123.684c2.853-11.795,6.286-23.381,10.162-34.858c0.371-1.1,0.754-2.198,1.091-3.309 c0.602-1.989,0.094-3.743-1.664-4.784c-1.596-0.945-3.299-0.482-4.577,0.806c-1.871,1.886-3.83,3.744-5.38,5.882 c-19.666,27.13-34.699,56.435-41.184,89.598c-2.607,13.328-2.063,26.801-0.33,40.2c1.19,9.201,2.366,18.432,4.224,27.512 c1.95,9.532,4.64,18.916,7.126,28.333c3.218,12.192,2.973,24.292-0.696,36.331c-2.489,8.166-6.414,15.137-15.802,16.599 c-9.944,1.548-17.266-3.39-22.348-11.097c-7.328-11.112-10.326-23.516-7.998-36.905 C229.283,652.822,216.874,628.076,196.987,617.803z M221.592,277.197c-0.672,0.25-1.114,0.275-1.237,0.486 c-0.491,0.844-1.052,1.703-1.285,2.632c-5.055,20.152-9.272,40.469-10.268,61.278c-0.908,18.978,2.744,37.432,7.382,55.711 c3.63,14.305,9.057,28.208,9.569,43.203c0.035,1.034,0.168,2.089,1.49,2.15c1.937,0.089,1.461-1.48,1.453-2.493 c-0.051-6.796-0.376-13.574-0.767-20.366c-0.888-15.387-3.38-30.504-6.807-45.421c-6.282-27.346-6.682-54.634-1.706-82.187 C220.291,287.344,222.193,282.476,221.592,277.197z M61.085,603.872c-2.706,0.561-2.984,2.562-3.756,4.112 c-10.953,22.01-15.915,45.185-14.554,69.852c0.709,12.856,3.935,24.685,10.522,35.657c0.707,1.177,1.075,3.469,2.876,2.696 c1.418-0.608,0.635-2.526,0.23-3.957c-3.078-10.874-4.282-21.982-4.577-33.271c-0.204-7.84,0.504-15.619,1.231-23.351 c0.988-10.498,1.344-21.098,3.616-31.458C58.138,617.477,59.58,610.796,61.085,603.872z M184.253,662.321 c-2.771,4.739-4.622,9.722-7.711,14.189c-9.277,13.414-18.329,26.954-25.199,41.877c-8.239,17.897-15.207,36.071-16.292,56 c-0.075,1.374-0.891,3.563,1.052,3.811c2.142,0.274,1.606-1.979,1.704-3.344c0.51-7.113,2.28-13.945,4.745-20.591 c8.766-23.632,21.332-45.337,34.042-66.972C181.115,679.595,183.792,671.274,184.253,662.321z M315.216,520.933 c-2.948,4.571-3.256,8.575-3.817,12.598c-2.462,17.639-6.074,35.067-3.928,53.179c2.214,18.69,4.502,37.183,13.743,53.997 c0.546,0.993,0.336,3.272,2.281,2.52c1.942-0.751,0.272-2.437-0.063-3.367c-4.661-12.928-7.61-26.172-8.943-39.886 c-2.044-21.034-2.617-41.987-0.062-63.037C315.014,532.105,316.337,527.153,315.216,520.933z M337.706,140.939 c0,3.264-0.404,6.064,0.07,8.705c1.97,10.973,1.107,21.817-1.725,32.432c-4.777,17.905-10.072,35.671-14.921,53.557 c-0.417,1.539-2.764,4.145-0.421,4.942c2.181,0.742,2.291-2.641,3.077-4.266c2.583-5.345,4.808-10.864,7.426-16.191 c11.428-23.247,12.849-47.894,10.282-73.082C341.279,144.924,340.603,142.574,337.706,140.939z M506.198,747.075 c-1.793,3.45-3.493,6.146-4.653,9.057c-4.938,12.386-10.161,24.58-17.709,35.704c-4.259,6.277-7.817,13.025-13.137,18.557 c-0.594,0.618-1.729,1.466-0.777,2.507c0.859,0.939,1.851,0.216,2.657-0.346c0.676-0.471,1.29-1.043,1.882-1.62 c14.095-13.737,24.167-30.046,30.48-48.617C506.487,757.772,508.618,752.982,506.198,747.075z M314.266,465.511 c4.828-3.137,6.087-7.222,8.429-10.443c7.845-10.789,15.397-21.772,20.113-34.404c0.665-1.78,1.855-3.482,0.141-6.009 C332.133,430.725,320.874,445.983,314.266,465.511z M227.744,478.263c0,2.49,0.031,4.98-0.013,7.469 c-0.023,1.297,0.444,2.561,1.624,2.735c1.739,0.256,2.162-1.482,2.224-2.673c0.18-3.474,0.478-7.032-0.09-10.42 c-0.345-2.059,0.014-6.14-2.137-5.905c-3.057,0.334-1.108,4.089-1.592,6.31C227.586,476.571,227.731,477.433,227.744,478.263z M4.972,789.54c5.009,19.554,16.378,34.038,33.915,43.861c6.079,3.405,11.623,7.629,17.354,11.578 c14.71,10.134,28.869,21.095,44.419,29.98c1.162,0.664,2.638,2.349,3.837,0.43c1.02-1.632-0.95-2.147-1.911-2.881 c-13.594-10.387-26.692-21.392-38.809-33.446c-15.689-15.608-30.279-32.204-40.734-51.936 c-10.962-20.689-15.308-43.134-17.121-66.227c-0.466-5.936-1.329-11.841-1.983-17.763c-0.14-1.272-0.59-2.407-1.966-2.414 c-1.385-0.007-1.909,1.141-1.955,2.405c-0.036,0.994-0.024,2.002,0.101,2.986c1.171,9.224,1.903,18.473,1.85,27.781 c-0.054,9.45-0.012,18.901-0.012,28.352C-0.367,771.735,2.67,780.554,4.972,789.54z M98.815,389.624 c-0.015-1.547-0.375-3.377-2.169-3.342c-1.983,0.038-1.782,1.991-1.776,3.465c0.074,17.909-5.282,34.801-9.805,51.831 c-3.73,14.044-12.129,25.961-18.231,38.928c-5.053,10.735-9.056,22.116-17.015,31.201c-8.093,9.239-14.67,19.739-23.651,28.231 c-1.123,1.062-2.894,2.154-1.703,4.146c1.335,2.233,3.265,1.001,4.868,0.445c6.223-2.156,11.606-5.732,15.719-10.836 c5.122-6.356,10.737-12.225,16.364-18.113c4.468-4.676,8.537-9.721,11.863-15.308c18.006-30.255,24.116-63.611,25.551-98.177 C98.829,397.939,98.856,393.781,98.815,389.624z M205.985,892.447c-10.252-5.794-15.413-15.714-20.809-25.476 c-7.886-14.264-12.684-29.478-13.208-45.776c-0.746-23.204,3.73-45.78,9.234-68.173c0.496-2.019,1.399-4.324-0.923-5.191 c-2.197-0.82-2.803,1.759-3.638,3.282c-4.478,8.165-6.642,17.205-9.623,25.925c-6.35,18.572-11.035,37.301-7.301,57.288 c4.152,22.223,13.94,40.838,32.394,54.424c4.267,3.141,8.826,5.444,14.672,5.33C206.391,893.248,206.31,892.631,205.985,892.447z M380.094,125.426c-2.505-13.799-8.552-25.845-17.254-36.702c-0.993-1.239-1.332-3.422-3.583-2.27 c-2.184,1.118-1.017,2.867-0.314,4.268c3.113,6.206,5.952,12.564,7.632,19.276c4.083,16.318,5.398,32.957,5.105,49.76 c-0.2,11.443,0.342,22.925-2.121,34.214c-0.877,4.021-1.997,7.99-3.032,11.976c-0.328,1.261-1.178,2.785,0.437,3.513 c1.886,0.851,2.434-1.024,3.192-2.211c0.265-0.414,0.418-0.901,0.609-1.361c7.094-17.071,12.148-34.599,11.982-53.291 C382.911,143.43,381.727,134.423,380.094,125.426z M365.542,767.844c-2.79-2.341-5.569-4.704-8.483-6.885 c-14.079-10.541-23.634-24.585-30.97-40.262c-3.34-7.14-6.021-14.591-10.696-21.044c-0.755-1.042-1.401-2.7-3.001-1.936 c-1.502,0.718-1.059,2.418-0.452,3.507c3.934,7.058,4.335,15.147,6.765,22.633c4.364,13.448,10.152,26.071,22.618,34.048 c7.504,4.801,16.135,7.735,23.014,13.628c0.646,0.553,1.417,0.987,2.196,0.257c0.441-0.413,0.734-0.983,1.126-1.527 C366.847,769.322,366.289,768.47,365.542,767.844z M488.474,591.488c0.029,4.293-0.335,8.617,1.001,12.811 c0.588,1.845,1.737,3.481,3.645,3.462c1.776-0.018,1.876-2.139,2.209-3.47c1.167-4.66,1.967-9.39,1.348-14.23 c-1.599-12.498-1.883-25.029-0.948-37.59c0.109-1.468,0.607-3.325-1.397-3.642c-2.266-0.359-2.336,1.816-2.839,3.314 c-3.325,9.895-3.314,20.136-3.023,30.393C488.47,585.519,488.454,588.504,488.474,591.488z M197.316,699.888 c-2.434-0.356-2.155,2.697-2.775,4.458c-1.693,4.811-3.412,9.614-5.2,14.39c-1.73,4.62-3.58,9.196-5.331,13.809 c-0.424,1.117-0.56,2.369,0.497,3.213c1.126,0.9,1.82-0.139,2.39-0.889c6.702-8.839,11.422-18.476,11.871-30.284 C198.162,703.301,199.924,700.27,197.316,699.888z" fill="#811f16"/></g></svg>