<?xml version="1.0" encoding="UTF-8"?><svg xmlns="http://www.w3.org/2000/svg" xmlns:xlink="http://www.w3.org/1999/xlink" height="361.7" preserveAspectRatio="xMidYMid meet" version="1.0" viewBox="-4.9 -2.1 318.6 361.7" width="318.6" zoomAndPan="magnify"><g fill-rule="evenodd"><g id="change1_1"><path d="m194.24 39.345-11.05 41.936 23.86 11.58 15.09-41.409-20-16.318z" fill="#f1c485"/></g><g id="change1_2"><path d="m196.45,10.711c1.097,1.198 3.987.603 3.825,3.061-2.5.199-3.69-.909-3.83-3.061z" fill="#f1c485"/></g><g id="change1_3"><path d="m201.8,14.537c1.966.074 1.094,2.986 3.06,3.06-.533,2.017-3.482,1.617-3.825,3.825-1.938-2.063-.603-2.97-1.53-5.355 1.31.033 1.98-.569 2.29-1.53z" fill="#f1c485"/></g><g id="change1_4"><path d="m106.17,17.597h2.295c.151,2.191.095,4.175-2.295,3.825 .01-1.275.01-2.55.01-3.825z" fill="#f1c485"/></g><g id="change1_5"><path d="m101.58,18.362h2.295c.151,2.191.095,4.175-2.295,3.825v-3.825z" fill="#f1c485"/></g><g id="change1_6"><path d="m209.45,19.127c3.116.261 6.372,3.39 4.591,6.121-2.06-1.508-3.66-3.481-4.59-6.121z" fill="#f1c485"/></g><g id="change1_7"><path d="m202.57,24.482c3.643-.892 4.85,3.183 3.825,4.59-3.91-.443-3.25-1.973-3.83-4.59z" fill="#f1c485"/></g><g id="change1_8"><path d="m104.64,25.248c2.316.234 2.733,2.367 6.121,1.53-.881.904-.866,2.705-.765,4.591-4.494-.679-7.967-.303-11.476-.765 .095-1.69 3.246-.325 4.59-.765-.405-.615-.798-1.242-.765-2.295 .927,1.519 2.638-.192.765-.765 .2-.832 1.53-.52 1.54-1.531z" fill="#f1c485"/></g><g id="change1_9"><path d="m210.22,32.133c1.039,1.767 2.2,3.411 2.296,6.121-2.646-1.696-5.382,1.953-9.181,1.53 .12-2.338 1.742-2.398.765-5.355 2.56-.243 4.82-.789 6.12-2.296z" fill="#f1c485"/></g><g id="change1_10"><path d="m97.753,35.958c1.517-2.898-.478,3.938 2.295,2.295-.46.654-4.579,1.971-.765,2.295-3.087,2.777-2.112-2.673-1.532-4.59z" fill="#f1c485"/></g><g id="change1_11"><path d="m93.163,35.958v5.355c-1.837,1.85-2.026-1.857-5.355-.765-.311-3.625 1.654-4.975 5.355-4.59z" fill="#f1c485"/></g><g id="change1_12"><path d="m111.52 37.488c4.154 16.248 3.85 36.954 13.006 48.2-12.95-7.827-14.79-30.031-13.01-48.2z" fill="#f1c485"/></g><g id="change1_13"><path d="m213.28,42.844c2.654-.359.438,4.152 2.295,4.591-3.142,2.116-5.802,1.711-9.181,2.295 .357-1.632-1.093-1.457-2.295-1.53 4.07-2.45 3.16-3.224 9.18-5.356z" fill="#f1c485"/></g><g id="change1_14"><path d="m89.338,46.669c3.049-.5 2.191,2.909 2.295,5.355-1.802.017-2.252-1.318-4.59-.765 .021-.744.937-.594 1.53-.765 .125-.89-.169-1.361-.765-1.53 .497-.777 1.759-.791 1.53-2.295z" fill="#f1c485"/></g><g id="change1_15"><path d="m106.17,46.669c1.704.782-1,3.518 0,6.121-3.104.977-10.436-2.275-9.946,2.295-1.054-1.184-1.541-4.592-.765-5.355 3.565-.671-1.054,1.984 1.53,2.295 2.648-3.165 3.821-4.177 9.181-5.356z" fill="#f1c485"/></g><g id="change2_1"><path d="m156.66,55.085c.244,1.838-5.307,4.09-5.355.765 1.8-.244 2.88-1.208 5.36-.765z" fill="inherit"/></g><g id="change1_16"><path d="m91.633,55.85v5.355c-2.032-.008-4.369.289-5.355-.765 .977-1.034 2.327-1.529 0-2.295 1.191-1.359 2.152-2.948 5.355-2.295z" fill="#f1c485"/></g><g id="change1_17"><path d="m105.4,55.85c3.018-.467.9,4.201 1.53,6.121h-9.946c1.136-.71 4.661-2.908 3.061-3.825 .95-1.61 4.62-.495 5.36-2.296z" fill="#f1c485"/></g><g id="change1_18"><path d="m215.57,61.206c1.745,1.061.286,5.325.766,7.651-5.731.722-10.398-1.559-13.006-.765-3.004-2.081 3.424-1.094 3.825-2.295-4.169-1.715 3.163-1.46.765-3.06 .83-2.237 6.83.704 7.65-1.531z" fill="#f1c485"/></g><g id="change1_19"><path d="m107.7,65.031c.816,2.552-.243,2.611.765,5.355-3.83-.515-5.922.708-9.181.765 .916-2.793 1.074-3.436 1.53-5.355 3.08.527 4.37-.733 6.89-.765z" fill="#f1c485"/></g><g id="change1_20"><path d="m96.224,65.796c2.932.777.972,3.538 2.295,4.591-1.999,2.682-1.446-3.595-2.295-4.591z" fill="#f1c485"/></g><g id="change3_1"><path d="m130.65,71.151c.627-1.311 5.533-.493 5.355,1.53-2.74.451-3.69-.889-5.35-1.53z" fill="#ee3224"/></g><g id="change1_21"><path d="m216.34,71.917c-1.668,1.6.382,2.184 0,4.59-2.476,1.012-7.706.685-13.006.765 .021-.744.936-.594 1.529-.765-.021-.744-.936-.594-1.529-.765-.042-1.223 5.393-1.955 1.529-2.295 4.03-.658 6.18-.975 11.48-1.53z" fill="#f1c485"/></g><g id="change1_22"><path d="m227.82,72.682c1.779,5.617.26,14.532.766,21.422-8.03-3.189-.73-14.598-.77-21.422z" fill="#f1c485"/></g><g id="change1_23"><path d="m95.458,81.862c-2.243-.053-1.676-2.914-4.591-2.295 .632-2.163-1.078-1.982-.765-3.825 4.576-3.213 5.428,1.323 5.356,6.12z" fill="#f1c485"/></g><g id="change2_2"><path d="m148.25 75.742c-1.324 1.836-6.354 2.844-7.651 2.295 1.38-2.268 4.88-3.59 7.65-2.295z" fill="inherit"/></g><g id="change1_24"><path d="m106.94,75.742c4.083-.003 4.922,3.239 5.355,6.885-4.609-2.74-5.349-.666-12.241-.765 3.461-2.162-1.663-.217-.765-3.825 .744.021.594.937.765,1.53 1.863-.432 3.936-.655 3.825-3.061 1.2-.063 2.91.369 3.06-.764z" fill="#f1c485"/></g><g id="change1_25"><path d="m214.04,81.098c-.018,1.802 1.317,2.252.765,4.59-6.831-.265-13.277,3.816-20.657,1.53 .847-1.959 4.108-1.502 6.886-1.53 .239-1.024 1.313-1.784 2.296-3.826 4.38.551 6.84-.816 10.71-.764z" fill="#f1c485"/></g><g id="change1_26"><path d="m95.458,88.748c.889-2.045 4.06-.068 3.06,2.295-2.456.671-1.585-1.984-3.06-2.295z" fill="#f1c485"/></g><g id="change1_27"><path d="m214.81,91.043c-1.115,5.246-17.693,3.505-16.831,0 5.19-.484 10.22-1.117 16.83,0z" fill="#f1c485"/></g><g id="change2_3"><path d="m171.2,92.573c1.53,5.268 7.492,3.054 10.711,5.355-10.866.675-32.277,7.295-42.079-2.295 9.12-1.218 25.47,6.637 31.37-3.06z" fill="inherit"/></g><g id="change3_2"><path d="m249.24,92.573c2.896.676.279,6.862 2.296,8.416-3.32,1.44-1.56-6.157-2.3-8.417z" fill="#ee3224"/></g><g id="change2_4"><path d="m231.64,97.929c3.435,1.057-2.256,5.086-1.53,8.416-2.36-2.66.69-6.413 1.53-8.411z" fill="inherit"/></g><g id="change2_5"><path d="m237,104.05c-.611,1.43-1.278,2.802-1.53,4.591-1.64-.71-1.05-5.56 1.53-4.59z" fill="inherit"/></g><g id="change2_6"><path d="m39.608 105.58c2.399 2.702 4.131 6.07 5.355 9.946-3.054-2.05-4.589-5.61-5.355-9.95z" fill="inherit"/></g><g id="change2_7"><path d="m80.157,114c2.687-.136 2.517,2.584 4.591,3.06-1.166,1.6-4.754-.81-4.591-3.06z" fill="inherit"/></g><g id="change3_3"><path d="m259.95,117.06c1.713-.011.727,9.678-.766,11.476-1.14-3.9 1.52-6.01.77-11.48z" fill="#ee3224"/></g><g id="change2_8"><path d="m154.37 140.01c-17.631-7.106-34.232-15.243-52.024-22.187 6.903-2.688 13.252 1.439 19.126 2.295 5.853 2.225 11.53 6.243 17.597 9.181 5.42 2.62 13.92 3.56 15.29 10.71z" fill="inherit"/></g><g id="change2_9"><path d="m49.554,123.94c2.893-.656 2.708,3.425 1.53,4.59-1.097-.94-1.449-2.63-1.53-4.59z" fill="inherit"/></g><g id="change2_10"><path d="m67.151,146.13c3.682,1.673 4.309,6.402 7.65,8.416-3.014.69-6.698-4.51-7.65-8.42z" fill="inherit"/></g><g id="change3_4"><path d="m39.608,148.42c1.532,1.019 1.705,3.396 2.295,5.356-1.658,1.146-1.782,3.828-4.59,3.825 .151-3.67 3.069-4.58 2.295-9.18z" fill="#ee3224"/></g><g id="change2_11"><path d="m285.2 150.72c-1.275 3.315-5.387 3.794-6.886 6.886-3.15-2.27 4.25-5.49 6.89-6.89z" fill="inherit"/></g><g id="change2_12"><path d="m67.916,152.25c3.067,2.033 4.338,5.863 6.885,8.416-3.029.96-5.955-4.75-6.885-8.42z" fill="inherit"/></g><g id="change3_5"><path d="m179.62,179.03c-.702-19.831 22.976-21.908 42.844-23.717 4.35.864-2.42.88-1.529,3.061-17.45,3.2-36.65,4.66-41.31,20.66z" fill="#ee3224"/></g><g id="change3_6"><path d="m188.8 156.07c-1.618 5.012-9.159 4.102-9.181 10.711-1.54-5.11 4.37-9.38 9.18-10.71z" fill="#ee3224"/></g><g id="change4_1"><path d="m92.398 160.66c3.98 2.651 8.606 4.655 14.537 5.355-1.488 3.357-5.307 4.384-4.59 9.946-5.157-3.27-7.003-9.84-9.952-15.31z" fill="#fff"/></g><g id="change4_2"><path d="m214.04,162.96c2.87,2.794-3.01,9.61-5.355,12.241-1.399-3.002-3.638-7.279-3.061-9.946 2.22-1.36 7.3.15 8.42-2.29z" fill="#fff"/></g><g id="change3_7"><path d="m88.573,163.72c3.194,3.181 5.107,7.644 6.886,12.241-1.005-.27-1.204-1.347-2.295-1.53 1.74,4.126 5.404,6.327 8.416,9.181-.124.896-1.395.646-2.295.765 5.835,8.531 17.438,8.069 29.073,6.12-4.819,7.642-27.147,5.97-29.838-2.295-7.68-2.28-8.816-10.666-9.946-17.597h2.295c-.95-2.1-2.237-3.88-2.298-6.88z" fill="#ee3224"/></g><g id="change3_8"><path d="m221.7 169.85c4.64 14.2-13.924 28.019-27.543 26.777-3.524-3.615-12.165-2.116-14.536-6.886 20.64 5.35 38.73-3.07 42.08-19.89z" fill="#ee3224"/></g><g id="change2_13"><path d="m18.187 170.61c-1.061 2-3.953 2.168-6.121 3.061 1.201-1.86 3.255-2.87 6.121-3.06z" fill="inherit"/></g><g id="change3_9"><path d="m216.34 170.61c1.86 7.225-6.417 10.918-11.477 13.771 4.28-4.14 8.79-8.05 11.48-13.77z" fill="#ee3224"/></g><g id="change3_10"><path d="m38.843,171.38c.778.497.791,1.759 2.295,1.53-1.121,1.684-2.027,3.583-5.355,3.06 .943-1.61 2.117-2.99 3.06-4.59z" fill="#ee3224"/></g><g id="change2_14"><path d="m162.02,172.91c2.817-.705 1.391,4.036.766,4.59-1.7-.1-.33-3.25-.77-4.59z" fill="inherit"/></g><g id="change3_11"><path d="m255.36 172.91c2.44 6.741 5.043 13.319 5.355 22.187-2.7-6.5-4.98-13.39-5.36-22.19z" fill="#ee3224"/></g><g id="change4_3"><path d="m186.5,175.97c2.785,1.806 3.076,6.105 6.886,6.886-4.529,1.834-8.541-.934-12.241.765 1.63-2.7 3.29-5.38 5.35-7.65z" fill="#fff"/></g><g id="change2_15"><path d="m167.38,182.09c3.011-1.226.267,3.304 2.296,3.061-1.11,2.26-3.09-.91-2.3-3.06z" fill="inherit"/></g><g id="change3_12"><path d="m132.95 186.68c-5.871 3.376-14.657 4.497-21.422 3.061 6.21-1 16.87-5.47 21.42-3.06z" fill="#ee3224"/></g><g id="change3_13"><path d="m183.44,185.91c4.027-.215 4.536.809 7.651,0-.37,3.19-6.95,2.81-7.65,0z" fill="#ee3224"/></g><g id="change2_16"><path d="m291.32,187.44c.136,2.686-2.584,2.516-3.061,4.59-1.236-1.312-3.199-1.9-6.12-1.53 1.4-2.67 6.38-1.77 9.18-3.06z" fill="inherit"/></g><g id="change2_17"><path d="m74.037,194.33c-2.189-.616-3.051-2.56-5.355-3.061 .848-2.91 4.823.93 5.355,3.06z" fill="inherit"/></g><g id="change2_18"><path d="m41.903 192.03c-1.195 2.375-2.27 4.871-3.825 6.886-1.64-2.19 1.297-6.33 3.825-6.89z" fill="inherit"/></g><g id="change3_14"><path d="m178.85 200.45h2.295c2.353 7.849 12.47 7.933 16.832 13.771-8.89 6.43-16.25-6.72-19.12-13.77z" fill="#ee3224"/></g><g id="change2_19"><path d="m77.097,201.21c3.449-.133 4.108,2.523 5.355,4.591-2.415.374-2.702-1.379-5.355-.765v-3.83z" fill="inherit"/></g><g id="change3_15"><path d="m141.36,202.74c-3.585,4.5-8.757,6.384-8.416,12.241 .376,6.452 6.89,6.068 11.476,11.477 4.2,4.952 3.658,10.376 6.121,13.771 11.667,3.201 13.776-8.953 19.127-14.536 7.114-.811 14.111-11.816 6.886-17.597 5.64-.939 7.7,4.351 6.885,11.477-2.863,5.042-8.686,7.125-13.771,9.945-2.911,5.76-5.979,11.362-11.477,14.537-3.863-.757-9.068-2.433-13.006-8.416-.95-1.443-1.084-3.805-2.295-5.355-5.575-7.14-16.589-6.824-13.771-19.892 .78-3.57 6.76-12.06 12.25-7.65z" fill="#ee3224"/></g><g id="change3_16"><path d="m107.7,203.51c1.004.271 1.203,1.347 2.295,1.53-.554,3.271-.502,7.147-3.06,8.415 .64-2.93.99-6.15.76-9.95z" fill="#ee3224"/></g><g id="change3_17"><path d="m51.85 206.57c2.674 2.117-1.636 9.943-2.295 13.771-1.703-4.02 2.611-8.6 2.295-13.77z" fill="#ee3224"/></g><g id="change2_20"><path d="m229.34,218.04c-.497.778-1.759.791-1.53,2.295-2.999-.061-4.771-1.349-6.885-2.295 .91-2.95 6.12-.35 8.42,0z" fill="inherit"/></g><g id="change2_21"><path d="m79.392 217.28h2.295c-1.154 2.417-2.897 4.244-3.825 6.886-2.072-1.88 2.334-3.75 1.53-6.89z" fill="inherit"/></g><g id="change2_22"><path d="m213.28,218.81c1.341,1.05 3.645,3.151 2.295,4.591-2.42.125-2.557-2.033-5.355-1.53 .07-1.97 2.99-1.09 3.06-3.06z" fill="inherit"/></g><g id="change2_23"><path d="m224.76,222.64c-1.353,1.421-2.233-.332-3.825-.765 .13-2.36 4.11-1.62 3.82.76z" fill="inherit"/></g><g id="change5_1"><path d="m272.19 221.87c5.096 3.078 2.799 9.416 3.826 14.536 2.225 11.088 10.656 22.611 3.825 33.663-17.24-6.21-3.52-37.2-7.65-48.2z" fill="#b4985a"/></g><g id="change2_24"><path d="m240.82,222.64c1.168.013 1.677,5.67-.766,4.591-.09-1.89-.11-3.69.77-4.59z" fill="inherit"/></g><g id="change3_18"><path d="m116.12,234.11c2.08-.699-2.038-1.422-.765-3.825 2.801.004 1.123,4.488 4.59,3.825-.124.896-1.395.646-2.295.765 .336,3.234 4.632,2.509 5.355,5.355-6.37-.771-9.141-5.141-10.711-10.711 2.76.04 1.97,3.63 3.81,4.6z" fill="#ee3224"/></g><g id="change3_19"><path d="m213.28,233.35c-2.709.414-1.881-2.71-4.59-2.296 1.19-3.43 4.12.4 4.59,2.3z" fill="#ee3224"/></g><g id="change3_20"><path d="m129.12,254c-2.733,3.185-2.6,9.592-1.53,14.536-1.66-2.42-5.491-2.67-6.886-5.355 .456-8.08 4.917-12.787 10.711-11.476" fill="#ee3224"/></g><g id="change3_21"><path d="m131.42,251.71c.027-3.532-6.526-2.646-7.65-.766-8.057-1.889-11.69-8.201-17.597-12.24 7.858-.983 15.573,13.574 23.717,7.65 1.892.913 2.991,2.619 3.826,4.59 11.527-3.514 23.456-4.299 37.489-3.825 7.771-4.979 15.267-10.234 25.247-13.006-2.967,6.214-7.067,11.295-13.007,14.536-2.694-.791-5.459-2.359-6.885-2.295-2.066,3.401-.38,5.5-1.53,7.65-12.227,5.263-33.547,4.798-45.904,0" fill="#ee3224"/></g><g id="change3_22"><path d="m195.68 241c1.56 2.862-3.473 5.688-4.59 8.416-3.53-2.46 4.43-4.76 4.59-8.42z" fill="#ee3224"/></g><g id="change3_23"><path d="m110.76 245.59c2.405 3.461 7.81 3.922 9.181 8.416-4.61-1.26-7.18-4.56-9.18-8.42z" fill="#ee3224"/></g><g id="change4_4"><path d="m180.38,249.41c6.395,6.385 9.803,18.356-3.061,19.892 6.27-4.64.16-15.26 3.06-19.89z" fill="#fff"/></g><g id="change3_24"><path d="m111.52,258.59c10.675,23.515 55.954,25.163 75.742,8.416 .897-.76 2.994-4.043 4.59-2.296-14.63,25.87-72.91,26.35-80.33-6.12z" fill="#ee3224"/></g><g id="change4_5"><path d="m135.24,263.95c.358,3.146-1.923-.601-3.06,1.53 .529,2.397 2.041.997 3.825.765 .632,2.162-1.078,1.982-.765,3.825 .185,1.346 1.316,1.744 3.061,1.53 1.093-.17-.71-3.808 0-6.12 1.802-.018 2.252,1.317 4.59.765-.127,2.354 1.562,4.491 0,6.886-2.301.771-1.356-1.704-1.53-3.061-2.553,5.53-8.066-.561-10.711,0 .858-3.217.497-3.213 0-6.12 1.36-1.43 1.95.62 4.59,0z" fill="#fff"/></g><g id="change4_6"><path d="m162.02,267.01h3.826c-.216,2 .279,3.29 2.295,3.06-.522,2.283-3.046,2.564-6.121,2.296v-5.36z" fill="#fff"/></g><g id="change4_7"><path d="m146.72,267.77c1.459,1.436 1.384-.454 3.825,0 .104,2.446-.754,5.854 2.295,5.355-1.211,1.895-5.353.312-6.886,0 1.06-.98.76-3.31.77-5.35z" fill="#fff"/></g><g id="change4_8"><path d="m154.37,267.77h3.825c-.207,2.757-.191,5.292 3.061,4.591-1.46,1.09-3.322,1.778-5.355,2.295-1.1-1.7-1.92-3.69-1.53-6.89z" fill="#fff"/></g><g id="change2_25"><path d="m186.5,277.72c-.27,2.12-2.291,4.503-3.825,3.06 1.03-1.26 1.95-2.63 3.82-3.06z" fill="inherit"/></g><g id="change2_26"><path d="m165.84,296.85c1.393,1.942-.579,7.043-3.061,7.651 .92-2.66 1.64-5.51 3.06-7.65z" fill="inherit"/></g><g id="change3_25"><path d="m147.48,306.79c2.876,2.479.316,10.395 3.061,13.006-3.29.98-2.94-8.26-3.06-13.01z" fill="#ee3224"/></g><g id="change3_26"><path d="m169.67,308.32c1.448,1.007.562,6.122-1.53,6.12 .12-2.43 1.74-3.36 1.53-6.12z" fill="#ee3224"/></g><g id="change3_27"><path d="m176.56,308.32c2.94.673-.137,3.073 0,5.355-2.87-.6-.5-3.7 0-5.36z" fill="#ee3224"/></g><g id="change3_28"><path d="m141.36 316.74c1.45 1.018 1.151 6.108 1.53 9.945-2.51-1.3-1.21-6.44-1.53-9.94z" fill="#ee3224"/></g><g id="change3_29"><path d="m155.9,47.435c7.927,4.569 14.82,10.171 22.952,14.536-2.708,1.908-6.468-1.667-8.416-3.06-2.717,5.236 6.693,4.364 7.65,8.416-6.396-1.399-10.771-7.542-17.596-6.121 5.503,4.443 11.304,8.587 19.892,9.946-5.25,3.705-10.623-2.935-15.302-4.59 2.283,5.368 9.265,6.037 13.771,9.181-1.302.752-6.378-1.244-8.416-2.295-.714.561-1.159,1.391-1.53,2.295-.303,1.833 3.485-.425 2.296,2.295-4.465-1.095.829,3.199-3.826,2.295 4.35,4.802 10.403,2.127 15.302,5.355 1.717,1.131 1.735,3.283 3.061,4.59 8.886,8.768 23.843,8.077 39.783,4.59-.621,2.646 1.429,3.23 0,4.59 5.284-1.602 5.974-7.798 6.121-14.536 3.31-1.464.25,7.319 2.295,4.59 1.752,1.803-2.642,3.952-1.53,7.651 2.279-.016.981-3.609 2.295-4.591 1.188,5.28-2.509,12.274-4.59,16.832 5.049-2.989 7.075-14.497 6.886-21.422-.195-7.129 1.603,7.009 3.06,9.181-1.812,5.839-3.353,11.948-3.825,19.126 2.436-3.44 2.043-13.754 4.591-14.536-2.574,14.003-6.109,27.043-14.536,35.193 2.706,1.916 1.059,6.228 0,9.946-4.048,1.685-7.242,4.326-9.946,5.355-10.626-4.086-18.633,3.816-26.777,3.825 8.199-9.142 31.623-3.06 37.488-14.536-3.905.186-8.491,6.291-16.832,4.59-2.545.416 4.35-1.333 6.121-1.53-2.76-2.768-8.514,2.117-9.181-2.295-3.985,1.115-7.995,2.206-10.711,4.591 6.016-8.802 23.115-4.818 30.603-14.537 5.074-6.586 5.394-13.635 8.416-22.952-2.532,3.078-4.523,6.698-6.121,10.711-10.926,1.06-10.191,13.78-21.422,14.536-1.314-.98-.948-3.643-3.061-3.825-6.509.886-13.534,1.256-15.301,6.885-11.107,2.409-9.77,17.263-22.952,17.597 .281-1.301-.597-1.443-1.53-1.53 3.029-1.142 3.734-3.892 3.825-6.121-10.264-8.358-15.823,16.125 0,13.771-5.659,17.076 9.806,28.149 3.825,41.313-1.932-2.402.26-8.93-1.529-11.476-2.979,8.423 2.836,15.632 4.59,25.247-1.809,2.526-4.174,4.497-6.886,6.12-2.23-1.308 1.733-2.784.766-5.355-3.761,1.942-1.833-19.408-1.53-15.301-.088-1.187-3.033-4.936-1.53-6.886-3.418,11.878 2.093,44.277-15.302,37.488 .508-3.567-1.205-4.915-1.53-7.65-1.038.236-.634,1.915-.765,3.061-1.279-1.781-1.998-4.123-2.295-6.886-2.029-.244.716,4.285-2.296,3.06 1.824-3.874-5.655-4.352-6.885-7.65 .979-2.847 1.199-6.451 2.295-9.181 3.098.217 5.317,1.312 8.416,1.53-2.593-3.702.203-8.251-1.53-12.241-1.039.236-.635,1.915-.766,3.061-1.736-.814-.291-4.81-.765-6.886-1.344,1.899-1.399,1.251-2.295-.766-1.039.237-.635,1.916-.765,3.061-4.81-7.471-.558-14.732 0-24.482 3.105,1.815 2.978-5.23 2.295-7.65-.678-1.808-4.271,1.754-3.825-2.295 7.332.446 8.621-5.151 11.476-9.181-2.91-1.936-4.837-4.854-8.416-6.121-1.785.255-3.296.784-3.825,2.295-1.002,3.297 3.643.948 3.06,3.825-4.37,3.585-16.629-3.244-12.241-8.416-5.771-13.654-23.275-11.941-39.019-13.006-2.128-4.757-5.651-8.12-8.416-12.241-1.005.27-1.203,1.347-2.295,1.53-.772,7.751 5.427,12.298 5.355,16.832-9.012-14.244-25.812-23.752-22.952-47.435 2.6,4.03 4.188,9.073 6.12,13.771 1.269-2.069-1.173-6.962-1.53-9.946 2.104,1.721 2.238,5.413 3.825,7.651 1.183-1.482-.679-6.429-.765-9.181 3.434,13.142 10.394,22.76 21.422,28.308-8.181-7.63-14.934-16.689-19.126-28.308 2.71.094 1.269,4.341 3.06,5.355 .896-.124.646-1.395.765-2.295 4.118.218 2.773,5.897 7.651,5.355-.917-2.847-3.85-7.265-4.591-13.771 2.326,1.754 4.44,3.721 6.886,5.355-2.936-5.697-4.318-9.856-5.355-18.362 4.911,8.605 8.259,18.773 16.066,24.482 15.02-.317 26.755-4.376 35.193-13.006 4.185,1.308 10.06-.746 14.536-1.53-4.435-3.981-17.826.995-20.657-4.59 4.356-.531 6.354,1.296 10.711.765-.338-4.253-5.368-.632-8.416-3.06 1.458-2.556 11.804.518 14.536-.765-.363-3.208-7.312.171-6.886-3.826 4.433,2.382 8.243-1.764 13.006-1.53-1.967-5.221-12.337,2.219-16.831-1.53 5.833-2.454 11.392-.715 17.597-3.06-1.073-2.937-2.911-1.654-.766-4.591-3.96.27-12.654,6.782-17.596,3.826 6.553-1.863 13.61-3.222 17.596-7.651-7.166-1.802-12.536,4.799-20.656,4.59 3.247-4.149 12.15-2.641 14.536-7.65-3.019.552-5.924,1.216-8.416,2.295-.872-.68.473-2.136-3.06-1.53 .965-1.84 4.069-1.542 5.355-3.06 2.346.751-.879,2.041-.765,3.06 5.103-1.782 9.035-4.736 13.006-7.65-6.962.018-13.413,5.475-21.421,5.355 10.595-4.433 12.447-8.326 23.717-11.476 1.035,3.082 5.373.826 6.886.765-2.458-4.016-6.616-1.996-9.946-1.53-1.417-1.22 3.221-2.856 4.591-3.825-.256-2.709-2.105-1.881-.766-4.59-1.372-.097-1.613.937-3.061.765 .816-1.734 2.321-2.78 4.591-3.06-2.061,2.049.974,2.909 1.53,4.59 7.562,1.109 8.656,8.686 14.536,11.476-6.098.225-9.372-8.984-16.066-10.711 5.926,6.825 12.424,13.079 21.422,16.832-4.753,1.932-7.976-4.253-12.241-5.355 2.885,4.511 7.172,7.62 12.241,9.946-6.75.856-11.99-10.343-19.9-8.375zm-71.152,69.625c-2.074-.476-1.904-3.196-4.591-3.06-.163,2.25 3.425,4.66 4.591,3.06zm66.562-61.21c.049,3.325 5.6,1.073 5.355-.765-2.48-.443-3.56.521-5.35.765zm-10.71,22.187c1.297.549 6.327-.459 7.651-2.295-2.77-1.295-6.27.027-7.65,2.295zm-.77,17.597c9.802,9.59 31.213,2.97 42.079,2.295-3.219-2.301-9.181-.088-10.711-5.355-5.9,9.696-22.25,1.841-31.37,3.06zm90.28,10.706c-.726-3.33 4.965-7.359 1.53-8.416-.84,2.003-3.89,5.756-1.53,8.416zm-140.01-.76c-.97-2.601-3.612-3.528-6.121-4.59-.696,4.27 4.96,2.18 6.121,4.59zm98.697-1.53c-10.913.571-21.538,5.183-33.663,3.826-7.288-.816-14.301-7.371-22.952-5.355 13.13,10.92 41.12,10.94 56.61,1.53zm-110.94,6.89c-1.054-2.539-3.363-7.827-5.355-6.886 1.886,2.19 2.254,5.91 5.355,6.89zm157.61-2.3c.252-1.789.919-3.161 1.53-4.591-2.58-.97-3.17,3.88-1.53,4.59zm-36.73,1.53c-20.267,1.985-31.147,13.49-47.435,8.416-8.839-2.754-17.204-10.209-29.837-9.946-.768-.002-.911.62-1.53.765v2.295c18.039,1.742 28.774,18.291 46.669,13.771 11.346-2.865 21.021-17.192 35.958-11.476-.02-2.52-3.22-1.87-3.82-3.82zm-30.6,22.95c-4.296,1.278-9.398-1.098-11.477,4.59 13.851,3.53 23.818-6.462 34.429-12.241 5.631-3.067 12.101-3.214 16.831-7.651-14.38-5.16-25.74,11.12-39.78,15.3zm-29.07-3.82c-6.067-2.938-11.744-6.956-17.597-9.181-5.874-.856-12.223-4.983-19.126-2.295 17.792,6.944 34.394,15.081 52.024,22.187-1.36-7.15-9.86-8.09-15.29-10.71zm23.71,48.2c.625-.555 2.052-5.295-.766-4.59 .45,1.34-.92,4.49.77,4.59zm6.89,7.65c-2.029.244.715-4.286-2.296-3.061-.78,2.15 1.2,5.32 2.3,3.06z" fill="#ee3224"/></g><g id="change2_27"><path d="m196.45,48.199c-.518,12.744-3.5,23.022-7.651,32.133 6.749-6.262 9.04-19.308 9.946-29.073 5.487.365 3.497,4.826 9.181,3.825-2.036,2.554-6.713,2.468-5.355,8.416 1.69-.096.325-3.246.766-4.59 5.327,1.035 9.433-2.518 13.006-.765v-3.826c-.991-3.045-6.591-.835-8.416,0-4.688-1.887-3.236-4.894-7.65-4.59-1.864-2.216.839-9-2.295-9.946-2.231,1.084.967,7.598-2.296,7.651-4.635-1.25-2.002-8.239-2.295-12.241-.7-9.558-5.19-19.193-6.886-26.777 21.964-10.476 44.846,24.3 41.313,52.79 13.672,10.811 30.225,18.74 35.193,38.253 6.261-5.47 10.097-13.365 22.952-12.241 4.787,6.115.54,13.191 2.295,19.127 3.264,11.034 13.87,15.373 22.188,22.187 3.308,4.708-2.841,12.166-3.825,19.892-1.033,8.105 3.376,17.067 3.06,23.717-.334,7.042-4.918,12.818-5.355,18.361-12.49,5.616-17.51,18.703-26.777,27.543-1.373,15.056 9.563,28.123 7.651,45.139-.391,3.474-1.919,10.469-5.355,11.477-12.425,3.643-12.417-18.251-12.241-27.543-5.547,18.265-19.656,25.608-35.958,34.429-4.067,2.2-8.253,5.034-9.182,10.711-7.522,11.324-25.139,13.936-36.723,26.777-8.393,9.303-13.994,20.653-22.188,26.777-18.48,13.814-33.333-20.715-41.313-29.838-1.433-1.638-4.711-1.342-4.59-4.591-16.897-7.84-31.667-17.807-41.314-32.897-14.685-5.717-24.481-16.323-32.133-29.072 .145-4.991-.972-8.719-3.825-10.711 1.609,8.41.755,22.371-5.355,27.542-6.493.628-10.42-1.312-13.771-3.825-1.524-17.366 8.172-29.363 9.946-45.904-1.335-2.49-4.95-2.701-8.416-3.061-7.23-7.562-9.135-20.447-15.301-29.072-12.353-4.393-5.996-17.929-4.591-31.368 1.005-9.612-1.908-17.175-2.295-25.248 4.817-7.839 14.926-7.404 20.657-14.536 5.46-6.796 1.548-18.762 9.946-24.482 10.167.289 15.472,5.44 19.127,12.241 5.07-18.137 14.026-32.388 31.368-38.253 .973-29.508 10.51-56.017 36.717-62.737 3.117,12.867-6.672,26.075-3.826,37.488 1.083,4.344 4.359,5.211 6.121,9.946 13.035-6.092 22.007-16.247 32.133-25.248 15.89,6.959 23.39,25.9 43.62,26.013zm3.82-34.428c.162-2.458-2.729-1.862-3.825-3.061 .15,2.153 1.34,3.261 3.83,3.061zm-.76,2.295c.928,2.386-.408,3.292 1.53,5.355 .343-2.208 3.292-1.809 3.825-3.825-1.966-.074-1.094-2.986-3.06-3.06-.31.962-.98,1.564-2.29,1.53zm-93.34,5.356c2.39.35 2.446-1.634 2.295-3.825h-2.295c.01,1.275.01,2.55.01,3.825zm-4.59.765c2.39.35 2.446-1.634 2.295-3.825h-2.295v3.825zm112.46,3.061c1.781-2.73-1.475-5.86-4.591-6.121 .93,2.64 2.53,4.613 4.59,6.121zm-7.65,3.825c1.024-1.407-.183-5.482-3.825-4.59 .59,2.616-.07,4.146 3.83,4.59zm-103.28-2.296c1.873.573.163,2.284-.765.765-.033,1.053.36,1.68.765,2.295-1.345.44-4.495-.925-4.59.765 3.509.462 6.982.086 11.476.765-.101-1.886-.116-3.687.765-4.591-3.387.837-3.805-1.296-6.121-1.53-.01,1.013-1.34.701-1.53,1.531zm72.68,29.073c-5.069-2.326-9.356-5.435-12.241-9.946 4.266,1.102 7.488,7.287 12.241,5.355-8.998-3.753-15.496-10.006-21.422-16.832 6.694,1.727 9.969,10.936 16.066,10.711-5.88-2.791-6.975-10.367-14.536-11.476-.557-1.681-3.591-2.542-1.53-4.59-2.27.28-3.774,1.326-4.591,3.06 1.447.172 1.688-.862 3.061-.765-1.34,2.709.51,1.881.766,4.59-1.37.969-6.008,2.605-4.591,3.825 3.33-.465 7.488-2.485 9.946,1.53-1.513.061-5.851,2.316-6.886-.765-11.27,3.15-13.122,7.043-23.717,11.476 8.008.119 14.459-5.338 21.421-5.355-3.971,2.915-7.903,5.868-13.006,7.65-.114-1.019 3.111-2.309.765-3.06-1.287,1.519-4.391,1.22-5.355,3.06 3.533-.605 2.188.851 3.06,1.53 2.492-1.079 5.397-1.743 8.416-2.295-2.386,5.009-11.29,3.501-14.536,7.65 8.121.209 13.491-6.393 20.656-4.59-3.986,4.429-11.043,5.788-17.596,7.651 4.942,2.956 13.636-3.556 17.596-3.826-2.146,2.937-.308,1.654.766,4.591-6.205,2.345-11.763.606-17.597,3.06 4.494,3.749 14.864-3.691 16.831,1.53-4.763-.234-8.573,3.912-13.006,1.53-.426,3.997 6.522.618 6.886,3.826-2.732,1.283-13.078-1.791-14.536.765 3.048,2.428 8.077-1.193 8.416,3.06-4.356.531-6.354-1.296-10.711-.765 2.831,5.585 16.222.609 20.657,4.59-4.477.785-10.351,2.838-14.536,1.53-8.438,8.63-20.173,12.689-35.193,13.006-7.807-5.709-11.155-15.877-16.066-24.482 1.037,8.505 2.419,12.665 5.355,18.362-2.446-1.635-4.56-3.602-6.886-5.355 .741,6.506 3.674,10.924 4.591,13.771-4.877.542-3.533-5.138-7.651-5.355-.12.9.131,2.172-.765,2.295-1.791-1.014-.35-5.261-3.06-5.355 4.192,11.619 10.945,20.677 19.126,28.308-11.028-5.548-17.988-15.166-21.422-28.308 .086,2.752 1.948,7.698.765,9.181-1.587-2.238-1.721-5.93-3.825-7.651 .357,2.984 2.799,7.877 1.53,9.946-1.933-4.698-3.52-9.741-6.12-13.771-2.86,23.683 13.94,33.191 22.952,47.435 .071-4.534-6.128-9.08-5.355-16.832 1.092-.184 1.291-1.26 2.295-1.53 2.764,4.121 6.287,7.484 8.416,12.241 15.744,1.065 33.247-.648 39.019,13.006-4.388,5.172 7.872,12.001 12.241,8.416 .583-2.877-4.062-.528-3.06-3.825 .529-1.511 2.041-2.04 3.825-2.295 3.579,1.267 5.506,4.185 8.416,6.121-2.855,4.03-4.145,9.627-11.476,9.181-.447,4.05 3.147.487 3.825,2.295 .683,2.42.811,9.466-2.295,7.65-.558,9.75-4.81,17.012 0,24.482 .13-1.145-.273-2.823.765-3.061 .896,2.017.952,2.665 2.295.766 .474,2.076-.972,6.071.765,6.886 .131-1.146-.273-2.824.766-3.061 1.733,3.99-1.062,8.539 1.53,12.241-3.099-.218-5.318-1.313-8.416-1.53-1.096,2.729-1.317,6.334-2.295,9.181 1.23,3.299 8.709,3.776 6.885,7.65 3.012,1.226.267-3.304 2.296-3.06 .297,2.763 1.016,5.104 2.295,6.886 .131-1.146-.273-2.824.765-3.061 .325,2.735 2.038,4.083 1.53,7.65 17.395,6.789 11.884-25.61 15.302-37.488-1.503,1.95 1.442,5.699 1.53,6.886-.303-4.107-2.23,17.243 1.53,15.301 .968,2.571-2.996,4.048-.766,5.355 2.712-1.623 5.077-3.594 6.886-6.12-1.754-9.615-7.569-16.824-4.59-25.247 1.789,2.546-.402,9.073 1.529,11.476 5.98-13.164-9.484-24.237-3.825-41.313-15.823,2.354-10.264-22.129 0-13.771-.091,2.229-.796,4.979-3.825,6.121 .934.086 1.812.229 1.53,1.53 13.183-.333 11.845-15.188 22.952-17.597 1.767-5.629 8.792-6 15.301-6.885 2.112.183 1.746,2.845 3.061,3.825 11.23-.756 10.496-13.476 21.422-14.536 1.598-4.013 3.589-7.633 6.121-10.711-3.022,9.317-3.342,16.366-8.416,22.952-7.487,9.718-24.587,5.734-30.603,14.537 2.716-2.385 6.726-3.476 10.711-4.591 .667,4.412 6.421-.472 9.181,2.295-1.771.198-8.666,1.946-6.121,1.53 8.341,1.701 12.927-4.404 16.832-4.59-5.865,11.477-29.289,5.394-37.488,14.536 8.145-.009 16.151-7.912 26.777-3.825 2.704-1.029 5.898-3.67 9.946-5.355 1.059-3.719 2.706-8.03 0-9.946 8.427-8.149 11.962-21.19 14.536-35.193-2.548.782-2.155,11.096-4.591,14.536 .473-7.178 2.014-13.287 3.825-19.126-1.457-2.172-3.255-16.311-3.06-9.181 .189,6.926-1.837,18.434-6.886,21.422 2.081-4.558 5.778-11.552 4.59-16.832-1.313.981-.016,4.575-2.295,4.591-1.111-3.699 3.282-5.848 1.53-7.651-2.045,2.729 1.015-6.054-2.295-4.59-.147,6.738-.837,12.935-6.121,14.536 1.429-1.36-.621-1.944 0-4.59-15.94,3.487-30.897,4.177-39.783-4.59-1.325-1.307-1.344-3.459-3.061-4.59-4.898-3.228-10.952-.553-15.302-5.355 4.655.904-.639-3.391 3.826-2.295 1.189-2.72-2.599-.462-2.296-2.295 .371-.904.816-1.735 1.53-2.295 2.038,1.052 7.114,3.048 8.416,2.295-4.507-3.145-11.488-3.813-13.771-9.181 4.679,1.656 10.052,8.295 15.302,4.59-8.588-1.358-14.389-5.503-19.892-9.946 6.825-1.421 11.2,4.721 17.596,6.121-.957-4.051-10.367-3.18-7.65-8.416 1.948,1.393 5.708,4.968 8.416,3.06-8.132-4.365-15.025-9.967-22.952-14.536 7.91-1.984 13.15,9.215 19.89,8.399zm28.31-21.422c.978,2.958-.645,3.018-.765,5.355 3.799.422 6.535-3.227 9.181-1.53-.096-2.709-1.257-4.354-2.296-6.121-1.3,1.508-3.56,2.054-6.12,2.296zm11.47-.765c1.04,5.195 2.865,5.195.766,0 2.406-.876 1.859,1.201 3.061,1.53 .214-1.744-.185-2.876-1.53-3.061-.2,1.076-1.68.873-2.3,1.531zm-114.76,3.825c1.927-.135.456,2.971-.765,4.591-.594.171-1.509.021-1.53.765 2.812.249 6.773-.652 8.416.765-.14-2.978 2.374-7.272.765-9.181-1.91,1.403-4.68,1.95-6.89,3.06zm-1.526,3.061c-3.814-.325.305-1.642.765-2.295-2.773,1.643-.778-5.193-2.295-2.295-.582,1.916-1.557,7.366 1.529,4.59zm-11.476,0c3.33-1.092 3.518,2.615 5.355.765v-5.355c-3.701-.386-5.666.964-5.355,4.59zm36.722,45.139c-9.156-11.246-8.852-31.952-13.006-48.2-1.78,18.169.06,40.373 13.01,48.2zm96.4-35.193c3.363-2.015-1.202-4.511.765-6.886-3.565,1.72-2.467-5.102-3.825-3.06 1.12,3.203 1.16,7.496 3.05,9.946zm-16.83-2.296c1.202.073 2.652-.102 2.295,1.53 3.379-.583 6.039-.179 9.181-2.295-1.856-.439.359-4.95-2.295-4.591-6.02,2.133-5.11,2.907-9.18,5.356zm-116.29.765c.596.169.89.641.765,1.53-.594.171-1.509.021-1.53.765 2.338-.553 2.788.782 4.59.765-.104-2.447.754-5.855-2.295-5.355 .229,1.504-1.033,1.518-1.53,2.295zm9.18,3.061c-2.583-.311 2.036-2.966-1.53-2.295-.775.764-.289,4.171.765,5.355-.49-4.57 6.842-1.318 9.946-2.295-1-2.603 1.704-5.339 0-6.121-5.36,1.179-6.533,2.191-9.182,5.356zm123.17,26.777c5.521-1.763-2.31-12.624 4.591-13.006-4.312-7.495-.013-9.702-4.591-14.536 2.33,8.847 1.01,18.218 0,27.542zm-133.88-20.656c2.327.766.977,1.261 0,2.295 .986,1.054 3.323.757 5.355.765v-5.355c-3.202-.654-4.163.935-5.355,2.295zm13.773,0c1.601.917-1.925,3.115-3.061,3.825h9.946c-.63-1.92 1.487-6.588-1.53-6.121-.75,1.801-4.42.686-5.36,2.296zm107.87,4.59c2.398,1.6-4.934,1.345-.765,3.06-.401,1.201-6.829.214-3.825,2.295 2.607-.793 7.274,1.487 13.006.765-.479-2.326.979-6.59-.766-7.651-.83,2.236-6.83-.705-7.66,1.531zm-122.41,6.12c2.372-2.812 2.926,2.634 6.121,1.53 1.25-1.474 1.294-6.382-1.53-6.121-1.808,2.437-5.741,1.976-4.591,4.591zm15.298-3.06c-.456,1.92-.614,2.562-1.53,5.355 3.259-.056 5.351-1.28 9.181-.765-1.007-2.744.051-2.803-.765-5.355-2.52.032-3.81,1.292-6.89.765zm-2.291,4.591c-1.323-1.053.637-3.814-2.295-4.591 .849.996.296,7.273 2.295,4.591zm37.491,2.295c.178-2.023-4.728-2.841-5.355-1.53 1.65.64 2.6,1.98 5.35,1.53zm68.85.765c3.863.34-1.571,1.073-1.529,2.295 .594.171 1.509.021 1.529.765-.594.171-1.509.021-1.529.765 5.3-.08 10.53.247 13.006-.765 .382-2.407-1.668-2.991 0-4.59-5.3.555-7.45.872-11.48,1.53zm23.72,20.657c-.506-6.89 1.014-15.805-.766-21.422 .05,6.824-7.25,18.233.77,21.422zm-138.48-18.362c-.313,1.843 1.397,1.663.765,3.825 2.915-.619 2.348,2.242 4.591,2.295 .071-4.797-.781-9.333-5.356-6.12zm13.767.765c.11,2.405-1.962,2.628-3.825,3.061-.171-.594-.021-1.509-.765-1.53-.897,3.608 4.226,1.664.765,3.825 6.892.1 7.632-1.975 12.241.765-.434-3.646-1.272-6.889-5.355-6.885-.13,1.132-1.84.7-3.05.764zm99.46,5.355c-.982,2.042-2.057,2.802-2.296,3.826-2.777.028-6.039-.429-6.886,1.53 7.38,2.286 13.826-1.795 20.657-1.53 .553-2.338-.782-2.788-.765-4.59-3.87-.052-6.33,1.315-10.71.764zm-95.63,9.181c1.944-.352 3.099-1.492 3.825-3.061-.37,1.5 3.507,2.464 3.825.765-.713-2.118-4.985-6.125-6.886-2.295 4.823.39-3.392,1.851-.765,2.295 .9.12 2.171-.131 2.295.765-1.01-.117-4.2,1.203-2.28,1.531zm-9.181,0c1-2.363-2.171-4.34-3.06-2.295 1.474.311.603,2.966 3.06,2.295zm99.461,0c-.862,3.505 15.716,5.246 16.831,0-6.61-1.117-11.64-.484-16.83,0zm53.55,9.947c-2.017-1.554.6-7.74-2.296-8.416 .75,2.259-1.01,9.856 2.3,8.416zm-29.83,157.6c-4.105-5.841-4.745-15.147-10.711-19.127 2.187,4.707 7.252,10.589 4.59,17.597 .231-7.655-6.616-6.245-4.59-13.771-3.766.677-3.599-6.562-6.121-4.59 2.904,3.46 5.568,16.363 0,19.126 .066-4.286 2.05-10.679 0-14.536-2.52,4.621-1.717,12.563-5.355,16.066-1.011-.009-.699-1.341-1.529-1.53-6.347,21.021-26.01,31.672-51.26,31.368-2.321-1.759-5.509-2.651-7.651-4.591-25.374-2.934-32.644-23.971-37.488-47.434-.44,1.345.924,4.495-.765,4.59-1.264-.012-.428-2.122-1.53-2.295-1.639,1.674 1.235,4.118-1.53,5.355-.073-1.202.103-2.652-1.53-2.295-.502,8.479-.471,14.88 3.06,20.656-9.828-3.285-5.127-15.207-4.59-24.481-6.976,6.624-1.233,23.422-2.295,29.072-6.039-6.261-.351-17.966-2.295-26.013-.695,2.111-.238,5.373-1.53,6.886-2.548-.241 2.303-3.626-1.53-3.061-3.026,7.436-2.583,17.012.765,23.718 2.856-.306 4.489.611 4.59,3.061-2.433-.117-3.366-1.735-6.121-1.53-12.473-11.754-6.718-40.455 11.476-41.314-.945-2.476 2.476-.584 1.53-3.06-26.082,2.149-30.884,42.217-8.416,51.26 2.464,2.126 2.09,7.09 6.121,7.65-.125-4.481-5.055-8.186-3.825-11.477 5.125,2.016 4.94,9.342 8.416,13.007-.768.002-.911-.62-1.53-.766 .472,2.079 1.518,3.583 3.06,4.591 .816-.714.238-2.822 2.295-2.295 .517,3.076 3.52,7.67 5.355,6.885-4.365-3.03-4.431-10.36-9.181-13.006 1-2.603-1.705-5.339 0-6.12 4.349,9.935 10.951,21.689 17.596,26.777-4.189-7.091-12.169-16.607-10.711-24.482 5.168,7.838 9.905,16.107 15.302,23.717-.164-7.996-5.626-10.695-7.651-16.831 6.77,3.431 8.75,11.651 10.711,19.892 4.182-.431 4.353,8.595 8.416,10.711 .12-.9-.131-2.172.765-2.295 1.151,1.654.852,4.759 3.061,5.355-.587-7.324-6.157-13.728-4.59-20.657 1.799,2.355.454.306 3.06,0 .432,3.649.799,7.361 2.295,9.946 1.813-3.03-2.25-5.56.765-6.886-.432,3.491 1.355,4.765.765,8.416-1.202.072-2.652-.103-2.295,1.529 1.445.085.531,2.53 2.295,2.296 1.051-1.744-1.972-2.876 0-3.061 3.33,4.391 1.26,10.387 3.826,14.536 1.651-13.896-.917-22.144 4.59-32.133 3.187,1.883-1.515,9.156.766,12.241-.656-1.561 1.204-4.216 1.53-2.295-.435,2.153-3.066,6.063-.766,8.415 .089-1.951.145-3.936 2.296-3.825-1.205,2.623-1.205,16.959 0,14.537v-4.591c1.041-4.646.331-14.042 5.355-16.832-3.419,8.316-4.574,22.965-4.591,32.134 3.39-10.112 1.257-26.332 9.181-33.663-.215,2.561-3.03,5.509 0,6.885-2.79,5.093-7.236,14.142-4.59,19.893 2.018-13.028 6.659-23.433 13.771-31.368-2.605,8.146-9.846,19.683-8.415,26.777 2.377-5.783 2.363-13.958 7.65-16.831-.11.903-1.362,1.734 0,2.295 1.22-.565-.175-3.745 2.295-3.061-.655,4.988-3.964,10.573-3.825,15.302 4.928-5.019 4.463-15.429 9.181-20.657 .444,4.271-2.286,5.364-2.295,9.181 6.875-1.03 4.021-11.79 9.181-14.536-.443,6.195-4.219,13.111-3.825,17.597 5.292-7.094 3.409-17.109 8.416-23.717 .13,1.145-.273,2.823.765,3.06-.021-2.57 1.054-4.047 2.295-5.355-.282,5.803-4.153,16.286-4.59,22.188 7.359-7.941 4.933-25.671 16.831-29.072-2.459,7.235-6.687,16.769-7.65,22.951 .72-3.36 3.471-4.689 5.355-6.885 2.2-5.706 1.246-14.565 5.355-18.362-.44.464-1.791,3.629 0,3.825 .943-1.861.646-4.965 3.061-5.355-.042.979-.98,1.06-.766,2.296 2.776.736.643-3.438 3.061-3.061 2.015,10.229-9.541,17.449-10.711,24.482 10.57-4.731 10.993-19.61 18.361-27.543-1.727,4.988-5.899,15.407-6.12,16.832 4.965-5.953 9.347-10.337 15.302-13.771 4.661-9.875 6.776-22.296 9.945-33.663 .776,10.598-.637,24.285-5.355,30.603 8.877-4.593 10.676-24.621 6.121-35.958 1.263-.012.428-2.122 1.529-2.295 .087.934.229,1.812 1.53,1.53-1.749-4.864-.077-8.157 0-11.477 .626,2.952 1.392,6.906 1.53,10.711 .38,10.397-1.02,22.804-.765,29.073 5.457-7.286 2.65-20.076 3.825-28.308 3.553,1.547-.128,10.328 2.295,13.006 5.666-12.116-1.969-25.447.766-36.724 2.296,1.784-1.471,9.631 3.06,9.181 1.78-1.938-1.329-7.614.766-12.241 4.83,11.822-2.846,27.631-.766,37.489 2.163-7.019 2.523-15.84 6.886-20.657-.128-2.167-1.402-3.188-1.53-5.355 2.647-20.922-15.089-38.375-6.12-61.971 .038,10.732 2.276,19.533 6.12,24.482-5.105-8.174.285-20.971-.765-29.073-1.61,3.49-.654,9.547-3.825,11.476-.26-10.971 2.811-18.611 6.886-25.248-.367,2.975-1.669,9.008-.766,10.711 1.065-.974.333-3.748 2.296-3.825-4.962,21.544.697,41.663 6.885,59.675 3.263,1.422 5.278,2.961 8.416,2.295 5.003-1.061 4.008-6.975 6.886-11.476 3.77-5.895 10.494-7.012 12.241-10.711 .64-5.03.172-7.436 2.295-9.946 1.945-.582 1.283,5.228 3.061,2.295-.424-2.637-3.517-2.604-3.825-5.355-.996-11.506-1.284-24.804 2.295-36.723-.873-2.952-3.297-4.354-3.825-7.651-12.78-3.796-15.498-17.655-20.657-29.073 2.239,11.546-.337,26.146-1.53,39.784 4.483-5.871 1.529-14.864 6.121-19.892 .496,9.653-3.998,18.101-3.825,22.952 2.482-5.678 4.885-11.437 7.65-16.832 2.245,4.764-1.43,9.628-2.295,13.771 1.315-.041 1.961.589 2.295,1.53-5.099,4.087-12.603,9.833-13.006,16.066 2.966-5.705 8.417-8.924 13.006-13.006-3.591,5.845-8.933,9.939-13.006,15.302 1.315-.041 1.961.589 2.295,1.53-2.212.337-3.487,1.613-3.825,3.825 7.962-3.514 12.609-10.343 22.187-12.241-3.401,7.055-13.913,6.999-16.831,14.536 3.495-2.421 7.04-4.125 11.476-3.06-3.187.3-4.196,3.622-7.65,1.53-1.75,6.156-7.471,8.341-11.476,12.241 1.914-.095 2.395-1.46 3.06.765h-1.53c2.505,1.492 5.829-4.112 9.946-6.121 5.897-2.877 13.605-4.338 16.831-6.885-1.596,5.552-13.001,5.35-12.24,10.711 2.596-2.264 9.241-4.51 11.476-4.59-5.822,6.929-16.219,9.283-21.422,16.831 3.352-.557-.616,1.521 1.53,1.53 1.426-2.168 5.638-5.552 8.416-3.825-3.209,2.912-7.822,4.419-11.477,6.886 1.213,1.593 6.074-.464 5.355,3.061-2.124-.719-5.006-2.311-6.12,0 3.047.6 5.334,3.14 6.886,3.06-1.112,1.184-2.984,1.606-5.355,1.53-.169-.596-.641-.89-1.53-.765-17.201-29.462 7.256-62.135-.766-95.634 .61-1.43 1.278-2.802 1.53-4.591-8.227,3.306-11.612,8.304-11.476,18.362 .114,8.405 1.342,17.404-4.591,22.952-1.455-2.115-.333-6.807-3.061-7.651-.125,1.649-3.09,6.925-1.529,5.355 1.552-.488.503-3.576 2.295-3.825 .036,4.372-.699,7.972-3.061,9.946-.356-3.521.153-3.161-2.295-4.59 .958-3.888 2.617-7.073 3.825-10.711-2.845,1.057-3.581,3.473-5.355,3.061 1.787-4.917 3.583-9.32 3.825-13.771-4.312.969-2.754,14.497-6.886,10.711-1.024,3.311-1.661,7.01-3.825,9.181 1.518-11.052 10.437-19.061 6.12-31.368-.104,7.268-4.88,13.162-5.355,17.597-.04-8.534 5.281-21.388 0-29.838 3.357,15.354-7.411,26.567-8.415,37.489 .225-.68 2.07-3.35 2.295-1.53-2.319,5.535-1.858,6.101-5.355,9.181 1.955.825 2.678-3.293 3.825-.765-2.655,5.76-7.651,9.18-11.476,13.771 10.028-1.193 11.643-10.799 16.066-17.597 1.415,6.631-.366,10.319-1.53,16.066 3.863,1.595 10.012,6.792 3.825,12.241-6.891.771-10.459-1.782-16.066-2.295 2.469,5.328 12.315,5.997 17.597,6.121 .082,6.616-8.804-.438-10.711,3.826 2.791,1.832 6.668.106 8.416,1.53-2.863,2.714-9.036-.089-9.182,3.826 2.571-.085 4.048-1.53 5.355.765-2.692.495-1.188,8.651-6.885,6.886-2.522,5.639-8.172,8.15-13.007,11.477 1.102,1.692 1.867-.964 2.296.765-.835,1.716-3.756,1.345-4.591,3.061 15.124.075 18.776-15.394 29.072-17.597-3.882,8.613-11.864,13.127-19.892,17.597 6.28,1.837 13.029-6.271 17.597-6.121-2.138,3.982-7.391,4.851-11.476,6.886 1.254,2.484.413,4.852-3.061,4.591 .225-1.561 2.07-1.5 2.295-3.061-9.038,3.896-19.052-4.794-25.247.765 .594.172 1.509.021 1.53.766-1.366.003-4.451-2.061-5.355,0 .516-.305 2.673.422 2.295.765-6.728,6.098-16.614-6.882-22.952-6.12 1.812,6.579 14.456,17.581 25.247,9.945-1.149-1.481-3.222,1.338-3.825-1.529 8.251-1.926 17.096,1.365 25.247-.766-4.536,7.194-22.037,1.425-26.012,9.181 4.483.009 2.145,1.512.765,3.061 3.313.257 8.015-.873 9.181,1.53-1.432.863-3.686.904-3.06,3.825 10.058,3.204 17.296,9.226 19.892,19.892-4.792-.575-6.657-8.118-10.711-6.886 1.797,1.773 4.633,2.508 4.59,6.121-3.177-1.43-4.524-8.715-9.181-6.121 6.057,4.149 12.7,11.777 10.711,21.422-2.293-1.532-.263-7.387-3.825-7.65-1.94,2.15 4.78,6.29 1.52,9.86zm-45.14,55.09c-.137-2.282 2.94-4.683 0-5.355-.5,1.66-2.87,4.76 0,5.36zm-125.48-198.16c-3.62-9.037-6.796-17.406-16.066-19.126-3.396,6.039-5.564,13.308-7.651,20.657-6.659,4.562-11.999,10.443-19.892,13.771 .649,4.542 5.639,15.817 0,19.126 3.643,7.143-1.073,17.993-.765,24.482 11.909,9.257 10.822,31.511 26.012,37.488 2.181-1.899 3.843-4.316 5.355-6.885 .691,1.333 1.711,2.946 3.06,1.529 16.152-17.61 20.306-65.18 9.947-91.05zm38.254,28.31c-9.97-14.512-22.431-26.534-29.838-43.609 .574,2.487 1.385,4.735 2.295,6.886-1.333.058-2.379-.171-3.061-.765 4.689,5.512 3.989,16.414 10.711,19.892-.086-2.719-2.83-2.781-2.295-6.12 4.727,5.732 12.017,12.97 13.771,19.126-3.817-4.089-5.959-9.853-11.476-12.241-1.868,2.251 2.771,2.895 2.295,6.121-1.56-.225-1.5-2.07-3.06-2.295 .455,3.138 5.341,5.848 3.825,8.416-6.584-5.147-7.436-16.027-13.006-22.187 5.689,14.204 11.118,32.745 23.717,37.488-2.405-3.216-8.651-6.635-7.651-10.711 2.021,1.32 4.509,6.167 6.886,4.59-3.577-4.838-8.562-8.27-9.946-15.301 5.317,5.143 9.734,15.253 16.832,16.066-2.164-1.682-6.313-5.39-4.59-8.416 1.854.24 3.384,4.71 4.591,3.06zm169.84-15.3c1.492-1.798 2.479-11.487.766-11.476 .75,5.48-1.91,7.59-.77,11.48zm-193.56,13.01c-2.058.212-1.882-5.687-3.825-3.061 2.482,3.38 4.812,8.753 2.295,13.006 3.996,4.95 7.43,12.39 10.711,18.362 1.376,2.504 3.716,6.884 6.886,6.12-3.522-2.608-6.357-9.951-6.121-13.771 2.484,1.086 1.491,5.65 5.355,5.355-.676-3.17-5.443-6.26-3.825-9.181 2.117,1.708 2.849,4.802 5.355,6.121-3.571-12.496-14.043-18.09-18.362-29.838-.383,3.18 2.237,3.37 1.531,6.88zm26.012.76c4.017,1.352 10.69,4.086 15.302,2.295-2.199.159-3.887-.194-4.59-1.53 2.777-.028 6.04.429 6.885-1.53-6.98-1.081-17.475-.107-22.187-5.355-1.031,5.001 9.736,4.439 13.771,6.885-3.795,1.19-9.995-2.33-9.187-.76zm30.607,6.12c-2.521-3.854-7.279-5.472-12.241-6.885 3.71,2.66 8.62,4.13 12.24,6.88zm7.65,10.72c-8.344-6.759-23.323-12.805-32.898-6.121 3.479.418 5.728-.394 6.886-2.295 14.269,3.074 25.275,13.486 32.133,21.422-.389-2.41-6.255-9.005-3.06-7.65-.296-3.624-3.11-3.03-4.59-3.826 .93-.08 1.81-.22 1.53-1.52zm91.04-.77c-.891-2.181 5.879-2.196 1.529-3.061-19.868,1.809-43.546,3.887-42.844,23.717 4.66-16 23.86-17.46 41.31-20.66zm-41.31,8.41c.021-6.609 7.562-5.699 9.181-10.711-4.81,1.33-10.72,5.6-9.18,10.71zm-97.168,16.84c-9.267-5.016-9.527-23.113-19.126-25.247 1.23.308-.029,4.489-.765,5.355-1.826-1.234.62-6.741-2.295-6.886-.665,8.574-.833,18.993-1.53,26.012 3.958-5.549 2.178-13.662 4.591-17.597 2.648,4.265-2.058,15.394.765,19.127 .938-2.256-.196-6.145 2.295-8.416 .704,6.42-1.532,14.177-3.06,20.657-3.178.372-1.2-4.411-3.826-4.591-2.03,12.251-6.353,22.21-9.181,33.663-.463-1.577 1.234-5.314-1.53-4.59-.781,15.599 2.63,24.549 8.416,32.133-2.272-7.042-9.594-16.748-4.591-26.013 .751,4.466.056,10.629 3.061,14.536-2.43-13.514-1.235-29.492 6.121-39.019-.8,6.094-5.199,12.643-3.825,18.362 .009-.771 1.341-.963 1.53,0-1.328,5.646 1.562,11.679 5.355,14.536-.849,2.451-2.198,9.087 2.295,8.416 1.388-7.543 6.167-15.759 9.946-18.362-.385,9.164-12.181,17.561-4.59,25.247 2.305-13.196 9.91-27.176 26.012-29.072 .264-4.837 1.398-8.803 4.59-10.711-1.973,3.373-1.771,8.719 2.295,11.476 1.049-3.089-1.372-2.708-2.295-3.825 .941-3.279.607-8.023 2.295-12.241-1.43-2.923-9.293-3.436-8.416-6.12 1.918.421 5.039,3.573 6.121,2.295-1.895-2.44-6.422-2.248-7.65-5.355 3.806-.212 6.298,4.892 9.181,3.061-6.683-2.248-13.354-8.571-20.657-7.65 2.621,1.225 9.663,2.04 8.416,4.59-7.232-3.479-15.358-6.063-22.187-9.946 .298-1.998.393-4.197 1.53-5.355 .593,3.506 4.754,7.461 7.651,6.121-2.993-2.426-9.882-7.159-6.121-11.476 2.277,2.58 5.691,8.06 9.19,6.88zm6.121-26.02c8.273.461 14.83,6.506 22.952,4.59 9.454,2.788 12.37,12.112 20.657,16.066-1.37-18.15-23.79-21.74-43.607-20.66zm13.767,18.37c-.716-5.562 3.102-6.588 4.59-9.946-5.931-.7-10.557-2.705-14.537-5.355 2.954,5.47 4.8,12.04 9.947,15.31zm103.29-10.71c-.577,2.667 1.661,6.944 3.061,9.946 2.346-2.631 8.226-9.447 5.355-12.241-1.12,2.43-6.2.92-8.41,2.29zm-114.76,5.35h-2.295c1.13,6.931 2.266,15.317 9.946,17.597 2.691,8.265 25.019,9.937 29.838,2.295-11.634,1.949-23.238,2.411-29.073-6.12 .9-.12 2.172.131 2.295-.765-3.012-2.854-6.676-5.055-8.416-9.181 1.092.183 1.291,1.26 2.295,1.53-1.779-4.597-3.691-9.06-6.886-12.241 .061,2.99 1.348,4.77 2.295,6.88zm88.752,19.13c2.371,4.77 11.012,3.271 14.536,6.886 13.619,1.241 32.183-12.578 27.543-26.777-3.35,16.82-21.44,25.24-42.08,19.89zm25.24-5.36c5.06-2.853 13.337-6.547 11.477-13.771-2.69,5.72-7.2,9.63-11.48,13.77zm55.85,10.71c-.312-8.868-2.915-15.446-5.355-22.187 .38,8.81 2.66,15.7 5.35,22.19zm-142.3-9.94c3.305-.957 9.25-.798 11.476-3.061-4.503-.597-4.237-5.963-7.65-7.65 .98,5.33-4.65,8.08-3.83,10.71zm62.74-1.53c3.7-1.699 7.712,1.069 12.241-.765-3.81-.781-4.101-5.08-6.886-6.886-2.06,2.27-3.72,4.95-5.35,7.65zm-125.48,14.53c.333-4.781 6.557-7.708 3.825-13.006 .13,5.25-5.63,8.64-3.825,13.01zm32.133-9.18c-.81-1.778-4.993-4.138-6.121-3.061 2.379.68 3.564,2.56 6.121,3.06zm23.712.77c6.765,1.437 15.551.315 21.422-3.061-4.54-2.41-15.2,2.06-21.42,3.06zm79.57-3.83c-3.115.809-3.624-.215-7.651,0 .7,2.81 7.28,3.19 7.65,0zm-74.21,38.25c4.095-1.595 3.838-1.092 7.65-1.53 3.519-1.99-.882-3.572-.765-4.59 .073-.632 2.492-.494 2.295,0 .673-1.69-.501-4.603 0-6.886 1.299-5.916 6.903-8.915 10.711-11.476-.484-2.576.986-7.106-.765-8.416-5.404,5.562-11.272,10.66-23.717,9.181-.341,2.891 3.997,1.103 4.59,3.061-1.9-.115-3.175.396-3.825,1.53 1.202.072 2.652-.103 2.295,1.529-1.145.131-2.823-.272-3.06.766 2.027,1.613.495,8.831.765,11.476 1.897.993 3.712-1.707 3.825,0 .736,3.664-3.438-.399-3.061,1.53 3.11,1.46 2.42,1.02 3.08,3.83zm81.1-9.94c-4.362-5.839-14.479-5.923-16.832-13.771h-2.295c2.86,7.05 10.22,20.2 19.12,13.77zm-68.86-3.82c-2.818,13.067 8.196,12.752 13.771,19.892 1.211,1.551 1.345,3.912 2.295,5.355 3.938,5.983 9.143,7.659 13.006,8.416 5.497-3.175 8.565-8.777 11.477-14.537 5.085-2.82 10.907-4.903 13.771-9.945 .815-7.126-1.245-12.416-6.885-11.477 7.226,5.78.229,16.786-6.886,17.597-5.351,5.583-7.46,17.737-19.127,14.536-2.463-3.395-1.921-8.818-6.121-13.771-4.586-5.408-11.1-5.024-11.476-11.477-.341-5.857 4.831-7.741 8.416-12.241-5.49-4.42-11.47,4.07-12.24,7.65zm-22.18,3.05c2.558-1.268 2.506-5.144 3.06-8.415-1.092-.184-1.291-1.26-2.295-1.53 .23,3.8-.12,7.02-.76,9.94zm-57.386,6.89c.659-3.828 4.97-11.654 2.295-13.771 .317,5.17-3.997,9.75-2.295,13.77zm-6.886-6.89c-1.718,12.823-.415,26.03 6.121,34.429 .831.298 1.837.918.765,0-5.713-10.33-4.373-24.798-4.59-37.488 .129,1.92-1.175,2.4-2.296,3.06zm-6.885,3.07c-1.725.569-.299,4.291-.765,6.12-1.4,4.271-17.774,45.034 0,37.489 3.376-15.353 5.427-32.518.765-46.67v1.53c-.078.85 1.112,1.19 0,1.53zm244.06,53.55c6.831-11.052-1.601-22.575-3.825-33.663-1.027-5.12 1.27-11.458-3.826-14.536 4.13,11-9.59,41.99 7.65,48.2zm-29.84-7.65c8.486-7.224 18.373-23.901 13.006-37.488 .03,16.35-8.67,28.05-13.01,37.49zm-117.05-29.07c-1.708-.261-4.791-5.821-3.825-3.826 .09,2 2.26,5.84 3.83,3.83zm47.43,1.53c2.313-1.785 8.772-3.443 7.65-6.12-1.22,2.88-8.69,3.52-7.65,6.12zm-68.09-5.36c1.57,5.57 4.341,9.94 10.711,10.711-.724-2.847-5.02-2.121-5.355-5.355 .9-.119 2.171.132 2.295-.765-3.468.663-1.789-3.821-4.59-3.825-1.273,2.403 2.845,3.126.765,3.825-1.84-.98-1.05-4.57-3.83-4.6zm26.01,8.42c-6.13.801-8.034-5.222-12.241-8.416 1.49,4.9 6.12,10.7 12.24,8.42zm70.39-6.89c2.709-.414 1.881,2.71 4.59,2.296-.47-1.9-3.4-5.73-4.59-2.3zm-132.36,41.31c-3.7-7.27-14.209-11.799-13.006-21.423 1.779,2.32 3.184,9.032 6.12,7.651-6.378-5.863-6.381-18.102-12.241-24.482 1.119,18.01 7.299,30.96 19.127,38.25zm52.788-18.36c12.357,4.798 33.678,5.263 45.904,0 1.15-2.15-.536-4.249 1.53-7.65 1.426-.064 4.19,1.504 6.885,2.295 5.939-3.241 10.04-8.322 13.007-14.536-9.98,2.771-17.476,8.027-25.247,13.006-14.033-.474-25.962.312-37.489,3.825-.834-1.971-1.934-3.677-3.826-4.59-8.144,5.924-15.858-8.634-23.717-7.65 5.907,4.039 9.54,10.352 17.597,12.24 1.124-1.881 7.678-2.767 7.65.766m59.68-2.3c1.117-2.729 6.149-5.554 4.59-8.416-.16,3.67-8.12,5.97-4.59,8.42zm-71.15,4.59c-1.371-4.494-6.776-4.955-9.181-8.416 2,3.87 4.57,7.17 9.18,8.42zm57.38,15.3c12.863-1.535 9.455-13.507 3.061-19.892-2.9,4.63 3.21,15.25-3.06,19.89zm14.54-4.59c-1.596-1.747-3.692,1.536-4.59,2.296-19.788,16.747-65.067,15.099-75.742-8.416 7.41,32.47 65.69,31.99 80.33,6.12zm-22.19-1.53c.434,2.372-.208,5.818 2.295,6.121 2.922-2.355-1.866-7.909 2.295-10.711-12.266,4.095-32.375,1.578-43.609.765 10.17,5.05 25.46,6.3 39.02,3.82zm-39.02.77c.497,2.907.858,2.903 0,6.12 2.645-.561 8.158,5.53 10.711,0 .174,1.356-.771,3.832 1.53,3.061 1.562-2.395-.127-4.532 0-6.886-2.338.553-2.788-.782-4.59-.765-.71,2.312 1.093,5.95 0,6.12-1.744.214-2.876-.185-3.061-1.53-.313-1.843 1.397-1.663.765-3.825-1.785.232-3.296,1.633-3.825-.765 1.137-2.131 3.418,1.616 3.06-1.53-2.64.62-3.23-1.43-4.59,0zm31.37,8.41c3.075.269 5.599-.013 6.121-2.296-2.016.23-2.511-1.06-2.295-3.06h-3.826c.01,1.8.01,3.58.01,5.36zm-16.07.77c1.533.312 5.675,1.895 6.886,0-3.049.499-2.191-2.909-2.295-5.355-2.441-.454-2.366,1.436-3.825,0-.01,2.03.29,4.36-.77,5.35zm9.95,1.53c2.033-.517 3.896-1.205 5.355-2.295-3.252.701-3.268-1.834-3.061-4.591h-3.825c-.4,3.2.42,5.19 1.52,6.89zm-5.36,45.14c-2.744-2.611-.185-10.526-3.061-13.006 .12,4.75-.23,13.99 3.06,13.01zm17.6-5.36c2.093.002 2.979-5.113 1.53-6.12 .21,2.76-1.41,3.69-1.53,6.12zm3.82,10.71c1.794-3.827 7.566-7.72 6.12-12.241-.52,5.1-6.38,8.9-6.12,12.24zm0-4.59c1.445-1.87 2.923-3.708 3.825-6.121-2.13.7-4.56,5.08-3.82,6.12zm-29.07,6.12c-.379-3.837-.08-8.928-1.53-9.945 .32,3.5-.98,8.64 1.53,9.94zm19.89,3.83c1.119-3.233 5.459-7.269 3.825-10.711-.81,3.18-5.06,10.5-3.82,10.71zm-11.47.77c-.432-2.771 2.271-6.342 0-8.416 1.09,3.43-2.07,6.55 0,8.42z" fill="inherit"/></g><g id="change1_28"><path d="m217.87,32.133c1.346.185 1.744,1.316 1.53,3.061-1.201-.329-.654-2.406-3.061-1.53 2.1,5.195.274,5.195-.766,0 .62-.659 2.1-.456 2.3-1.531z" fill="#f1c485"/></g><g id="change1_29"><path d="m217.87,40.549c1.358-2.042.26,4.78 3.825,3.06-1.967,2.375 2.599,4.871-.765,6.886-1.9-2.45-1.94-6.743-3.07-9.946z" fill="#f1c485"/></g><g id="change1_30"><path d="m220.16,51.26c4.578,4.834.279,7.041 4.591,14.536-6.9.382.93,11.244-4.591,13.006 1.01-9.324 2.33-18.695 0-27.542z" fill="#f1c485"/></g><g id="change1_31"><path d="m110,89.513c-.124-.896-1.395-.645-2.295-.765-2.627-.444 5.588-1.905.765-2.295 1.901-3.83 6.173.177 6.886,2.295-.318,1.699-4.195.734-3.825-.765-.727,1.569-1.881,2.709-3.825,3.061-1.92-.329 1.27-1.649 2.3-1.531z" fill="#f1c485"/></g><g id="change3_30"><path d="m220.16,248.65c3.562.264 1.532,6.118 3.825,7.65 1.989-9.645-4.654-17.272-10.711-21.422 4.656-2.594 6.004,4.691 9.181,6.121 .043-3.613-2.793-4.348-4.59-6.121 4.054-1.232 5.919,6.311 10.711,6.886-2.596-10.666-9.834-16.688-19.892-19.892-.626-2.921 1.628-2.962 3.06-3.825-1.166-2.403-5.867-1.273-9.181-1.53 1.38-1.549 3.719-3.052-.765-3.061 3.975-7.756 21.476-1.986 26.012-9.181-8.151,2.131-16.996-1.16-25.247.766 .604,2.867 2.676.048 3.825,1.529-10.791,7.636-23.435-3.366-25.247-9.945 6.338-.762 16.225,12.218 22.952,6.12 .378-.343-1.779-1.069-2.295-.765 .904-2.061 3.989.003 5.355,0-.021-.744-.937-.594-1.53-.766 6.195-5.559 16.209,3.131 25.247-.765-.225,1.561-2.07,1.5-2.295,3.061 3.474.261 4.314-2.106 3.061-4.591 4.085-2.035 9.338-2.903 11.476-6.886-4.567-.149-11.316,7.958-17.597,6.121 8.027-4.47 16.01-8.983 19.892-17.597-10.296,2.203-13.948,17.672-29.072,17.597 .835-1.716 3.756-1.345 4.591-3.061-.429-1.729-1.194.928-2.296-.765 4.835-3.326 10.484-5.838 13.007-11.477 5.696,1.766 4.192-6.391 6.885-6.886-1.308-2.295-2.784-.85-5.355-.765 .146-3.915 6.318-1.111 9.182-3.826-1.748-1.423-5.625.302-8.416-1.53 1.907-4.263 10.793,2.791 10.711-3.826-5.281-.124-15.128-.793-17.597-6.121 5.607.514 9.176,3.066 16.066,2.295 6.187-5.449.038-10.646-3.825-12.241 1.164-5.748 2.945-9.436 1.53-16.066-4.424,6.797-6.038,16.404-16.066,17.597 3.824-4.591 8.82-8.011 11.476-13.771-1.147-2.528-1.87,1.59-3.825.765 3.497-3.08 3.036-3.646 5.355-9.181-.225-1.819-2.07.851-2.295,1.53 1.004-10.921 11.772-22.134 8.415-37.489 5.281,8.45-.04,21.304 0,29.838 .476-4.435 5.251-10.329 5.355-17.597 4.316,12.307-4.603,20.316-6.12,31.368 2.164-2.171 2.801-5.87 3.825-9.181 4.132,3.786 2.574-9.742 6.886-10.711-.242,4.452-2.038,8.854-3.825,13.771 1.774.413 2.511-2.004 5.355-3.061-1.208,3.638-2.867,6.823-3.825,10.711 2.448,1.429 1.938,1.069 2.295,4.59 2.361-1.974 3.097-5.574 3.061-9.946-1.792.249-.743,3.337-2.295,3.825-1.561,1.569 1.404-3.706 1.529-5.355 2.728.844 1.605,5.536 3.061,7.651 5.933-5.548 4.705-14.547 4.591-22.952-.137-10.058 3.249-15.056 11.476-18.362-.252,1.789-.92,3.161-1.53,4.591 8.021,33.499-16.436,66.172.766,95.634 .89-.125 1.361.169 1.53.765 2.371.076 4.243-.347 5.355-1.53-1.552.08-3.839-2.46-6.886-3.06 1.114-2.311 3.996-.719 6.12,0 .719-3.524-4.143-1.468-5.355-3.061 3.654-2.467 8.268-3.974 11.477-6.886-2.778-1.727-6.99,1.657-8.416,3.825-2.146-.01 1.821-2.087-1.53-1.53 5.203-7.548 15.6-9.902 21.422-16.831-2.234.08-8.88,2.327-11.476,4.59-.761-5.361 10.645-5.159 12.24-10.711-3.226,2.547-10.934,4.008-16.831,6.885-4.117,2.009-7.441,7.613-9.946,6.121h1.53c-.665-2.225-1.146-.86-3.06-.765 4.005-3.9 9.726-6.085 11.476-12.241 3.454,2.092 4.464-1.23 7.65-1.53-4.436-1.065-7.98.639-11.476,3.06 2.918-7.537 13.43-7.481 16.831-14.536-9.577,1.898-14.225,8.728-22.187,12.241 .338-2.212 1.613-3.488 3.825-3.825-.334-.941-.979-1.571-2.295-1.53 4.073-5.363 9.415-9.457 13.006-15.302-4.589,4.082-10.04,7.302-13.006,13.006 .403-6.233 7.907-11.979 13.006-16.066-.334-.941-.979-1.571-2.295-1.53 .865-4.143 4.54-9.007 2.295-13.771-2.766,5.395-5.168,11.153-7.65,16.832-.173-4.851 4.321-13.299 3.825-22.952-4.592,5.027-1.638,14.021-6.121,19.892 1.193-13.638 3.77-28.237 1.53-39.784 5.159,11.417 7.877,25.277 20.657,29.073 .528,3.297 2.952,4.699 3.825,7.651-3.579,11.919-3.291,25.217-2.295,36.723 .309,2.752 3.401,2.719 3.825,5.355-1.777,2.933-1.115-2.876-3.061-2.295-2.123,2.51-1.655,4.916-2.295,9.946-1.747,3.699-8.472,4.816-12.241,10.711-2.878,4.501-1.883,10.415-6.886,11.476-3.138.666-5.153-.873-8.416-2.295-6.188-18.013-11.847-38.131-6.885-59.675-1.963.078-1.23,2.851-2.296,3.825-.903-1.703.398-7.736.766-10.711-4.075,6.637-7.146,14.276-6.886,25.248 3.171-1.929 2.215-7.986 3.825-11.476 1.05,8.102-4.341,20.898.765,29.073-3.844-4.95-6.082-13.75-6.12-24.482-8.969,23.596 8.768,41.049 6.12,61.971 .128,2.167 1.402,3.188 1.53,5.355-4.362,4.817-4.723,13.639-6.886,20.657-2.08-9.858 5.596-25.667.766-37.489-2.095,4.627 1.015,10.304-.766,12.241-4.53.45-.764-7.396-3.06-9.181-2.734,11.276 4.9,24.607-.766,36.724-2.423-2.678 1.258-11.459-2.295-13.006-1.175,8.231 1.632,21.021-3.825,28.308-.255-6.27 1.145-18.676.765-29.073-.139-3.805-.904-7.759-1.53-10.711-.077,3.319-1.749,6.612 0,11.477-1.301.281-1.443-.597-1.53-1.53-1.102.173-.267,2.283-1.529,2.295 4.555,11.337 2.756,31.365-6.121,35.958 4.719-6.317 6.132-20.005 5.355-30.603-3.169,11.367-5.284,23.788-9.945,33.663-5.955,3.435-10.337,7.818-15.302,13.771 .221-1.425 4.394-11.844 6.12-16.832-7.368,7.933-7.791,22.812-18.361,27.543 1.17-7.033 12.726-14.253 10.711-24.482-2.418-.378-.284,3.797-3.061,3.061-.215-1.236.724-1.317.766-2.296-2.415.391-2.117,3.494-3.061,5.355-1.791-.196-.44-3.361 0-3.825-4.109,3.797-3.155,12.656-5.355,18.362-1.885,2.195-4.636,3.524-5.355,6.885 .964-6.183 5.191-15.716 7.65-22.951-11.898,3.401-9.472,21.131-16.831,29.072 .437-5.901 4.308-16.385 4.59-22.188-1.241,1.309-2.315,2.785-2.295,5.355-1.038-.236-.635-1.915-.765-3.06-5.007,6.607-3.124,16.623-8.416,23.717-.394-4.485 3.382-11.401 3.825-17.597-5.16,2.746-2.306,13.506-9.181,14.536 .009-3.816 2.739-4.91 2.295-9.181-4.718,5.229-4.253,15.639-9.181,20.657-.139-4.729 3.17-10.313 3.825-15.302-2.47-.685-1.075,2.495-2.295,3.061-1.362-.561-.11-1.392 0-2.295-5.287,2.873-5.273,11.048-7.65,16.831-1.431-7.095 5.81-18.632 8.415-26.777-7.111,7.936-11.753,18.34-13.771,31.368-2.646-5.751 1.8-14.8 4.59-19.893-3.03-1.376-.215-4.324 0-6.885-7.924,7.331-5.791,23.551-9.181,33.663 .017-9.169 1.172-23.817 4.591-32.134-5.024,2.79-4.314,12.186-5.355,16.832v4.591c-1.205,2.422-1.205-11.914 0-14.537-2.151-.11-2.207,1.874-2.296,3.825-2.301-2.352.331-6.262.766-8.415-.326-1.921-2.187.734-1.53,2.295-2.28-3.085 2.421-10.358-.766-12.241-5.507,9.989-2.938,18.237-4.59,32.133-2.565-4.149-.496-10.146-3.826-14.536-1.972.185 1.051,1.316 0,3.061-1.764.234-.85-2.211-2.295-2.296-.357-1.632 1.093-1.457 2.295-1.529 .591-3.651-1.196-4.925-.765-8.416-3.015,1.326 1.048,3.855-.765,6.886-1.496-2.585-1.864-6.297-2.295-9.946-2.606.306-1.261,2.355-3.06,0-1.566,6.93 4.003,13.333 4.59,20.657-2.208-.597-1.91-3.701-3.061-5.355-.896.123-.645,1.395-.765,2.295-4.063-2.116-4.234-11.142-8.416-10.711-1.96-8.24-3.941-16.461-10.711-19.892 2.024,6.136 7.487,8.835 7.651,16.831-5.397-7.609-10.133-15.879-15.302-23.717-1.458,7.875 6.521,17.392 10.711,24.482-6.646-5.088-13.248-16.843-17.596-26.777-1.705.781 1,3.518 0,6.12 4.75,2.646 4.816,9.976 9.181,13.006-1.835.785-4.838-3.809-5.355-6.885-2.057-.527-1.479,1.581-2.295,2.295-1.542-1.008-2.588-2.512-3.06-4.591 .62.146.763.768 1.53.766-3.476-3.665-3.291-10.991-8.416-13.007-1.229,3.291 3.7,6.995 3.825,11.477-4.03-.561-3.656-5.524-6.121-7.65-22.468-9.043-17.666-49.11 8.416-51.26 .945,2.476-2.476.584-1.53,3.06-18.194.859-23.949,29.561-11.476,41.314 2.755-.205 3.688,1.413 6.121,1.53-.101-2.449-1.734-3.366-4.59-3.061-3.348-6.706-3.791-16.282-.765-23.718 3.833-.565-1.018,2.819 1.53,3.061 1.292-1.513.835-4.774 1.53-6.886 1.944,8.047-3.744,19.752 2.295,26.013 1.062-5.65-4.68-22.448 2.295-29.072-.537,9.274-5.237,21.196 4.59,24.481-3.531-5.776-3.562-12.178-3.06-20.656 1.632-.357 1.457,1.093 1.53,2.295 2.766-1.237-.109-3.682 1.53-5.355 1.102.173.267,2.283 1.53,2.295 1.689-.095.325-3.245.765-4.59 4.844,23.463 12.114,44.5 37.488,47.434 2.142,1.939 5.33,2.832 7.651,4.591 25.25.304 44.913-10.348 51.26-31.368 .83.189.519,1.521 1.529,1.53 3.639-3.503 2.836-11.445 5.355-16.066 2.05,3.857.066,10.25 0,14.536 5.568-2.763 2.904-15.666 0-19.126 2.522-1.973 2.355,5.267 6.121,4.59-2.026,7.526 4.821,6.116 4.59,13.771 2.662-7.008-2.403-12.89-4.59-17.597 5.966,3.979 6.605,13.286 10.711,19.127 3.33-3.48-3.39-7.62-1.47-9.85zm-57.38,55.85c2.481-.608 4.453-5.709 3.061-7.651-1.42,2.14-2.14,4.99-3.06,7.65zm19.9-23.72c1.534,1.443 3.556-.939 3.825-3.06-1.87.43-2.79,1.8-3.82,3.06zm95.63-123.18c1.499-3.091 5.61-3.57 6.886-6.886-2.64,1.41-10.04,4.63-6.89,6.89zm3.83,32.9c2.921-.37 4.884.218 6.12,1.53 .477-2.074 3.196-1.904 3.061-4.59-2.8,1.29-7.78.39-9.18,3.06zm-61.21,27.54c2.113.946 3.886,2.234 6.885,2.295-.229-1.504 1.033-1.517 1.53-2.295-2.31-.35-7.52-2.95-8.42,0zm-10.71,3.83c2.799-.503 2.936,1.655 5.355,1.53 1.35-1.439-.954-3.541-2.295-4.591-.07,1.97-2.99,1.09-3.06,3.06zm10.71,0c1.592.433 2.473,2.186 3.825.765 .29-2.38-3.69-3.12-3.83-.77zm19.13,5.36c2.442,1.079 1.934-4.578.766-4.591-.89.9-.87,2.7-.77,4.59zm-16.84,45.13c.418,1.111-.895,3.954.765,3.825 .383-.981 1.937-4.575.766-4.591-.16.61-.63.9-1.53.77z" fill="#ee3224"/></g><g id="change3_31"><path d="m84.748,140.77c-1.723,3.025 2.427,6.733 4.59,8.416-7.098-.813-11.515-10.923-16.832-16.066 1.384,7.032 6.369,10.463 9.946,15.301-2.376,1.577-4.864-3.271-6.886-4.59-1,4.076 5.246,7.495 7.651,10.711-12.6-4.743-18.028-23.284-23.717-37.488 5.571,6.16 6.422,17.04 13.006,22.187 1.516-2.567-3.37-5.277-3.825-8.416 1.56.225 1.5,2.07 3.06,2.295 .475-3.226-4.163-3.87-2.295-6.121 5.517,2.389 7.659,8.152 11.476,12.241-1.754-6.156-9.044-13.394-13.771-19.126-.535,3.339 2.208,3.401 2.295,6.12-6.722-3.478-6.021-14.38-10.711-19.892 .681.594 1.728.823 3.061.765-.91-2.15-1.722-4.399-2.295-6.886 7.407,17.075 19.868,29.097 29.838,43.609-1.208,1.66-2.738-2.81-4.591-3.05z" fill="#ee3224"/></g><g id="change2_28"><path d="m83.982,100.99c2.508,1.062 5.151,1.989 6.121,4.59-1.161-2.41-6.817-.32-6.121-4.59z" fill="inherit"/></g><g id="change2_29"><path d="m72.506,104.05c1.992-.941 4.301,4.347 5.355,6.886-3.1-.98-3.468-4.7-5.355-6.89z" fill="inherit"/></g><g id="change3_32"><path d="m41.138,206.57c-1.349,1.417-2.369-.196-3.06-1.529-1.512,2.568-3.175,4.985-5.355,6.885-15.19-5.977-14.103-28.23-26.012-37.488-.308-6.489 4.408-17.339.765-24.482 5.639-3.31.649-14.584 0-19.126 7.893-3.329 13.233-9.209 19.892-13.771 2.086-7.349 4.254-14.618 7.651-20.657 9.271,1.72 12.447,10.089 16.066,19.126 10.358,25.87 6.204,73.44-9.947,91.05zm-3.06-6.12c-2.64.931-2.559,4.582-6.886,3.825 5.773-11.985 13.387-28.318 17.597-44.374-.846,4.51-1.19,9.521-3.06,13.006 1.744-.214 2.876.184 3.06,1.53-1.01,6.393-5.33,13.532-4.59,19.126 7.167-15.41 10.158-44.134 6.121-63.5 1.205,6.547-.144,11.122-3.061,15.301 .922-18.009-6.626-27.547-13.006-38.253 .384,11.859 9.252,19.307 6.885,31.368-4.207-5.229-5.794-13.077-13.006-15.301 .646,3.96 6.277,6.963 5.355,9.946-3.144-1.447-3.287-5.894-6.886-6.886 .76,6.624 13.842,14.058 12.241,20.657-6.256-3.18-8.866-10.006-17.597-10.711 5.844,5.122 10.262,11.67 14.536,18.361-8.333-.593-11.135-6.716-19.126-7.65 1.205-1.137.852-3.418-1.53-3.061-.902,4.963 1.966,5.463 3.826,9.181-1.616-.68-2.262-2.33-4.591-2.295 3.87,5.596 15.17,6.877 21.422,7.651-1.951,2.64-7.048,2.132-8.416,5.355 1.9.995 3.175-2.245 3.825,0-.95,1.6-2.225,2.875-3.825,3.825-2.395-2.936-7.158.299-8.416,3.06 2.881-.332 3.239-3.182 6.12-1.53-1.27,4.098-9.913,4.862-9.181,8.416 6.668-3.277 13.181-6.711 19.127-10.711-.069,1.206-1.952.599-1.53,2.295 2.755.46 2.255-2.336 4.59-2.295-3.295,10.476-14.218,13.324-20.657,20.657 8.343-.992 12.521-9.711 19.126-9.946v4.59c-3.917,1.959-7.577,8.22-8.416,10.711 3.16-2.208 5.555-9.22 8.416-9.181-1.887,7.803-5.949,13.433-7.65,21.422 1.019.766 2.309,1.261 3.06,2.295 2.464-1.39 6.147-5.56 6.123-6.89zm6.886-84.93c-1.225-3.875-2.957-7.244-5.355-9.946 .765,4.35 2.3,7.91 5.355,9.95zm6.12,13.01c1.177-1.166 1.363-5.246-1.53-4.59 .081,1.96.433,3.65 1.53,4.59zm-39.018,45.14c2.168-.893 5.06-1.061 6.121-3.061-2.866.19-4.92,1.2-6.121,3.06zm26.012,25.25c1.555-2.015 2.63-4.511 3.825-6.886-2.528.56-5.465,4.7-3.825,6.89z" fill="#ee3224"/></g><g id="change2_30"><path d="m31.958,207.33c-.751-1.034-2.041-1.529-3.06-2.295 1.702-7.989 5.763-13.619 7.65-21.422-2.86-.039-5.255,6.973-8.416,9.181 .838-2.491 4.499-8.752 8.416-10.711v-4.59c-6.606.235-10.784,8.954-19.126,9.946 6.438-7.333 17.361-10.181 20.657-20.657-2.335-.041-1.835,2.755-4.59,2.295-.421-1.696 1.461-1.089 1.53-2.295-5.946,4-12.458,7.434-19.127,10.711-.732-3.553 7.911-4.318 9.181-8.416-2.881-1.652-3.239,1.198-6.12,1.53 1.257-2.761 6.021-5.996 8.416-3.06 1.6-.95 2.875-2.225 3.825-3.825-.65-2.245-1.925.995-3.825,0 1.367-3.224 6.465-2.716 8.416-5.355-6.251-.774-17.552-2.055-21.422-7.651 2.329-.034 2.975,1.615 4.591,2.295-1.86-3.718-4.728-4.218-3.826-9.181 2.382-.358 2.735,1.924 1.53,3.061 7.991.935 10.793,7.058 19.126,7.65-4.274-6.691-8.692-13.24-14.536-18.361 8.73.705 11.34,7.531 17.597,10.711 1.601-6.6-11.481-14.033-12.241-20.657 3.599.992 3.742,5.438 6.886,6.886 .922-2.982-4.71-5.985-5.355-9.946 7.211,2.224 8.799,10.073 13.006,15.301 2.367-12.061-6.501-19.508-6.885-31.368 6.38,10.706 13.928,20.245 13.006,38.253 2.917-4.18 4.266-8.754 3.061-15.301 4.038,19.367 1.047,48.091-6.121,63.5-.74-5.594 3.58-12.734 4.59-19.126-.184-1.346-1.316-1.744-3.06-1.53 1.87-3.485 2.214-8.497 3.06-13.006-4.21,16.056-11.824,32.389-17.597,44.374 4.327.757 4.246-2.895 6.886-3.825 .021,1.36-3.662,5.53-6.123,6.91zm5.355-49.73c2.809.003 2.932-2.679 4.59-3.825-.59-1.96-.763-4.337-2.295-5.356 .774,4.6-2.144,5.51-2.295,9.18zm-1.53,18.37c3.329.523 4.235-1.376 5.355-3.06-1.504.229-1.517-1.033-2.295-1.53-.943,1.6-2.117,2.98-3.06,4.59z" fill="inherit"/></g><g id="change2_31"><path d="m207.92 117.82c-4.73 4.437-11.2 4.583-16.831 7.651-10.61 5.778-20.578 15.771-34.429 12.241 2.078-5.688 7.181-3.312 11.477-4.59 14.04-4.18 25.4-20.46 39.78-15.3z" fill="inherit"/></g><g id="change3_33"><path d="m100.81,143.07c-4.035-2.446-14.803-1.884-13.771-6.885 4.712,5.248 15.207,4.274 22.187,5.355-.846,1.959-4.108,1.502-6.885,1.53 .704,1.336 2.392,1.689 4.59,1.53-4.612,1.791-11.285-.944-15.302-2.295-.803-1.57 5.397,1.95 9.182.77z" fill="#ee3224"/></g><g id="change3_34"><path d="m110 141.54c4.962 1.414 9.72 3.031 12.241 6.885-3.62-2.75-8.53-4.22-12.24-6.88z" fill="#ee3224"/></g><g id="change3_35"><path d="m128.36,160.66c1.48.796 4.294.202 4.59,3.826-3.195-1.354 2.671,5.241 3.06,7.65-6.857-7.936-17.864-18.348-32.133-21.422-1.158,1.902-3.407,2.713-6.886,2.295 9.575-6.685 24.554-.639 32.898,6.121 .28,1.3-.6,1.44-1.53,1.52z" fill="#ee3224"/></g><g id="change3_36"><path d="m73.271,176.73c-3.762,4.317 3.128,9.05 6.121,11.476-2.896,1.341-7.058-2.615-7.651-6.121-1.137,1.158-1.232,3.358-1.53,5.355 6.829,3.882 14.955,6.467 22.187,9.946 1.248-2.55-5.794-3.365-8.416-4.59 7.302-.921 13.974,5.402 20.657,7.65-2.882,1.831-5.375-3.272-9.181-3.061 1.228,3.107 5.756,2.915 7.65,5.355-1.082,1.278-4.203-1.874-6.121-2.295-.877,2.685 6.986,3.197 8.416,6.12-1.688,4.218-1.354,8.962-2.295,12.241 .924,1.117 3.345.736 2.295,3.825-4.066-2.757-4.269-8.103-2.295-11.476-3.192,1.908-4.327,5.874-4.59,10.711-16.102,1.896-23.707,15.876-26.012,29.072-7.591-7.687 4.206-16.083 4.59-25.247-3.779,2.604-8.558,10.819-9.946,18.362-4.493.671-3.145-5.965-2.295-8.416-3.793-2.857-6.683-8.891-5.355-14.536-.189-.963-1.521-.771-1.53,0-1.374-5.72 3.025-12.269 3.825-18.362-7.355,9.526-8.551,25.505-6.121,39.019-3.005-3.907-2.31-10.07-3.061-14.536-5.003,9.265 2.318,18.971 4.591,26.013-5.786-7.584-9.197-16.534-8.416-32.133 2.765-.725 1.067,3.013 1.53,4.59 2.828-11.453 7.15-21.412 9.181-33.663 2.625.18.648,4.963 3.826,4.591 1.528-6.48 3.764-14.237 3.06-20.657-2.491,2.271-1.358,6.16-2.295,8.416-2.822-3.733 1.883-14.862-.765-19.127-2.413,3.935-.633,12.047-4.591,17.597 .697-7.019.866-17.438 1.53-26.012 2.915.145.469,5.651 2.295,6.886 .736-.867 1.996-5.047.765-5.355 9.6,2.134 9.859,20.231 19.126,25.247-3.489,1.21-6.903-4.27-9.171-6.86zm-4.59,14.54c2.304.501 3.166,2.444 5.355,3.061-.531-2.13-4.506-5.97-5.355-3.06zm3.06,12.24c2.971-.478-1.125-1.699.765-4.591-4.066.24-1.068,2.56-.765,4.59zm5.356,1.53c2.654-.614 2.941,1.139 5.355.765-1.248-2.067-1.907-4.724-5.355-4.591v3.83zm13.771,16.83c3.179-1.156 5.93-2.741 7.651-5.355-3.449.88-5.66,3-7.651,5.35zm-13.006,2.29c.928-2.642 2.671-4.469 3.825-6.886h-2.295c.804,3.15-3.602,5.02-1.53,6.89z" fill="#ee3224"/></g><g id="change3_37"><path d="m132.18 178.26c-8.287-3.955-11.203-13.279-20.657-16.066-8.123 1.916-14.679-4.129-22.952-4.59 19.822-1.08 42.242 2.51 43.612 20.66z" fill="#ee3224"/></g><g id="change3_38"><path d="m59.5 185.15c2.731 5.298-3.493 8.225-3.825 13.006-1.805-4.38 3.955-7.77 3.825-13.01z" fill="#ee3224"/></g><g id="change3_39"><path d="m81.687,185.91c1.128-1.077 5.311,1.282 6.121,3.061-2.557-.5-3.742-2.38-6.121-3.06z" fill="#ee3224"/></g><g id="change3_40"><path d="m113.82,220.34c-.377-1.93 3.797,2.134 3.061-1.53-.113-1.707-1.928.993-3.825,0-.27-2.645 1.262-9.862-.765-11.476 .237-1.038 1.916-.635 3.06-.766 .357-1.632-1.093-1.457-2.295-1.529 .65-1.135 1.925-1.646 3.825-1.53-.593-1.958-4.931-.17-4.59-3.061 12.445,1.479 18.312-3.619 23.717-9.181 1.751,1.31.281,5.84.765,8.416-3.808,2.561-9.412,5.56-10.711,11.476-.501,2.283.673,5.195 0,6.886 .197-.494-2.222-.632-2.295,0-.118,1.018 4.283,2.6.765,4.59-3.812.438-3.555-.064-7.65,1.53-.67-2.82.02-2.38-3.07-3.83z" fill="#ee3224"/></g><g id="change2_32"><path d="m72.506,198.92c-1.891,2.892 2.206,4.113-.765,4.591-.303-2.03-3.301-4.35.765-4.59z" fill="inherit"/></g><g id="change3_41"><path d="m44.964,210.4c.217,12.69-1.123,27.158 4.59,37.488 1.072.918.066.298-.765,0-6.535-8.398-7.838-21.605-6.121-34.429 1.121-.67 2.425-1.15 2.296-3.06z" fill="#ee3224"/></g><g id="change5_2"><path d="m35.783,214.98v-1.53c4.663,14.152 2.611,31.317-.765,46.67-17.774,7.545-1.4-33.219 0-37.489 .466-1.829-.96-5.551.765-6.12 1.112-.33-.078-.67 0-1.53z" fill="#b4985a"/></g><g id="change2_33"><path d="m98.519 216.52c-1.721 2.614-4.472 4.199-7.651 5.355 1.991-2.36 4.202-4.48 7.651-5.36z" fill="inherit"/></g><g id="change3_42"><path d="m263.01 224.93c5.367 13.587-4.52 30.265-13.006 37.488 4.34-9.44 13.04-21.14 13.01-37.49z" fill="#ee3224"/></g><g id="change3_43"><path d="m129.12,229.52c-.966-1.995 2.117,3.565 3.825,3.826-1.56,2.01-3.73-1.83-3.82-3.83z" fill="#ee3224"/></g><g id="change3_44"><path d="m188.03 228.76c1.122 2.677-5.337 4.335-7.65 6.12-1.04-2.6 6.43-3.24 7.65-6.12z" fill="#ee3224"/></g><g id="change3_45"><path d="m126.06 229.52c4.207 3.194 6.111 9.217 12.241 8.416-6.12 2.28-10.75-3.52-12.24-8.42z" fill="#ee3224"/></g><g id="change3_46"><path d="m57.205 234.11c5.86 6.381 5.863 18.619 12.241 24.482-2.937 1.381-4.341-5.331-6.12-7.651-1.204 9.624 9.306 14.153 13.006 21.423-11.828-7.29-18.008-20.24-19.127-38.25z" fill="#ee3224"/></g><g id="change2_34"><path d="m224.76,271.6c1.171.016-.383,3.609-.766,4.591-1.659.129-.347-2.714-.765-3.825 .9.13 1.37-.16 1.54-.76z" fill="inherit"/></g><g id="change3_47"><path d="m178.08,312.91c1.446,4.521-4.326,8.414-6.12,12.241-.26-3.34 5.6-7.14 6.12-12.24z" fill="#ee3224"/></g><g id="change3_48"><path d="m175.79,314.44c-.902,2.413-2.38,4.251-3.825,6.121-.74-1.04 1.69-5.42 3.83-6.12z" fill="#ee3224"/></g><g id="change3_49"><path d="m166.61,319.8c1.634,3.442-2.706,7.478-3.825,10.711-1.24-.21 3.01-7.53 3.83-10.71z" fill="#ee3224"/></g><g id="change3_50"><path d="m151.31,322.86c2.271,2.074-.432,5.645 0,8.416-2.07-1.87 1.09-4.99 0-8.42z" fill="#ee3224"/></g><g id="change1_32"><path d="m107.7,34.428c1.608,1.908-.905,6.203-.765,9.181-1.643-1.417-5.604-.516-8.416-.765 .021-.744.937-.593 1.53-.765 1.221-1.62 2.692-4.726.765-4.591 2.2-1.11 4.97-1.657 6.88-3.06z" fill="#f1c485"/></g><g id="change1_33"><path d="m90.103,64.266c2.824-.262 2.779,4.646 1.53,6.121-3.195,1.104-3.749-4.343-6.121-1.53-1.15-2.616 2.783-2.155 4.591-4.591z" fill="#f1c485"/></g><g id="change2_35"><path d="m132.18 102.52c8.651-2.016 15.664 4.54 22.952 5.355 12.125 1.357 22.75-3.254 33.663-3.826-15.48 9.41-43.47 9.39-56.61-1.53z" fill="inherit"/></g><g id="change2_36"><path d="m202.57,114c-14.938-5.716-24.612,8.611-35.958,11.476-17.896,4.519-28.631-12.029-46.669-13.771v-2.295c.62-.146.763-.768 1.53-.765 12.633-.264 20.999,7.192 29.837,9.946 16.287,5.074 27.168-6.431 47.435-8.416 .6,1.93 3.8,1.28 3.83,3.81z" fill="inherit"/></g><g id="change3_51"><path d="m64.09,134.65c4.318,11.748 14.791,17.342 18.362,29.838-2.506-1.319-3.239-4.412-5.355-6.121-1.618,2.92 3.149,6.01 3.825,9.181-3.864.294-2.871-4.27-5.355-5.355-.236,3.82 2.599,11.163 6.121,13.771-3.169.764-5.509-3.616-6.886-6.12-3.281-5.972-6.715-13.412-10.711-18.362 2.518-4.253.187-9.626-2.295-13.006 1.943-2.626 1.768,3.273 3.825,3.061 .706-3.51-1.914-3.7-1.531-6.89zm10.711,19.89c-3.342-2.013-3.968-6.742-7.65-8.416 .952,3.92 4.636,9.12 7.65,8.42zm0,6.12c-2.547-2.553-3.818-6.383-6.885-8.416 .93,3.68 3.856,9.39 6.885,8.42z" fill="#ee3224"/></g><g id="change4_9"><path d="m122.24,174.44c3.413,1.687 3.147,7.053 7.65,7.65-2.226,2.262-8.171,2.104-11.476,3.061-.82-2.63 4.81-5.38 3.83-10.71z" fill="#fff"/></g><g id="change4_10"><path d="m130.65,259.36c11.234.813 31.343,3.33 43.609-.765-4.161,2.802.627,8.355-2.295,10.711-2.503-.303-1.861-3.749-2.295-6.121-13.55,2.47-28.84,1.22-39.01-3.83z" fill="#fff"/></g><g id="change4_11"><path d="m131.32,251.86c-5.794-1.312-10.255,3.396-10.711,11.476 1.395,2.686 5.226,2.936 6.886,5.355-1.07-4.944-1.835-10.421.794-13.871l3.03-2.97z" fill="#fff"/></g></g></svg>