<?xml version="1.0" encoding="UTF-8" standalone="no"?><svg xmlns="http://www.w3.org/2000/svg" xmlns:xlink="http://www.w3.org/1999/xlink" fill="#000000" height="60.5" preserveAspectRatio="xMidYMid meet" version="1" viewBox="-0.2 -0.2 60.5 60.5" width="60.5" zoomAndPan="magnify"><g><g id="change1_1"><path d="M45.458,15.957l-1.414-1.414L56.332,2.254l1.414,1.414L45.458,15.957z M57.746,14.674l-1.414-1.414 L44.043,25.548l1.414,1.414L57.746,14.674z M46.74,3.668l-1.414-1.414L33.038,14.542l1.414,1.414L46.74,3.668z M56.332,57.746 l1.414-1.414L45.458,44.043l-1.414,1.414L56.332,57.746z M45.326,57.746l1.414-1.414L34.452,44.044l-1.414,1.414L45.326,57.746z M56.332,46.74l1.414-1.414L45.458,33.038l-1.414,1.414L56.332,46.74z M2.254,56.332l1.414,1.414l12.288-12.288l-1.414-1.414 L2.254,56.332z M2.254,45.326l1.414,1.414l12.288-12.288l-1.414-1.414L2.254,45.326z M13.26,56.332l1.414,1.414l12.288-12.288 l-1.414-1.414L13.26,56.332z M3.668,2.254L2.254,3.668l12.288,12.288l1.414-1.414L3.668,2.254z M14.674,2.254L13.26,3.668 l12.288,12.288l1.414-1.414L14.674,2.254z M3.668,13.26l-1.414,1.414l12.288,12.288l1.414-1.414L3.668,13.26z" fill="#2f3542"/></g><g id="change2_1"><path d="M59.285,4.168c-0.954,0.954-2.5,0.954-3.453,0s-0.954-2.5,0-3.453s2.5-0.954,3.453,0 S60.238,3.215,59.285,4.168z M59.285,11.721c-0.954-0.954-2.5-0.954-3.453,0c-0.954,0.954-0.954,2.5,0,3.453 c0.954,0.954,2.5,0.954,3.453,0C60.238,14.22,60.238,12.674,59.285,11.721z M44.826,0.715c-0.954,0.954-0.954,2.5,0,3.453 s2.5,0.954,3.453,0s0.954-2.5,0-3.453S45.78-0.238,44.826,0.715z M59.285,59.285c0.954-0.954,0.954-2.5,0-3.453s-2.5-0.954-3.453,0 s-0.954,2.5,0,3.453S58.331,60.238,59.285,59.285z M48.279,59.285c0.954-0.954,0.954-2.5,0-3.453s-2.5-0.954-3.453,0 s-0.954,2.5,0,3.453S47.326,60.238,48.279,59.285z M59.285,44.826c-0.954-0.954-2.5-0.954-3.453,0s-0.954,2.5,0,3.453 s2.5,0.954,3.453,0S60.238,45.78,59.285,44.826z M0.715,59.285c0.954,0.954,2.5,0.954,3.453,0s0.954-2.5,0-3.453 s-2.5-0.954-3.453,0S-0.238,58.331,0.715,59.285z M0.715,48.279c0.954,0.954,2.5,0.954,3.453,0s0.954-2.5,0-3.453 s-2.5-0.954-3.453,0S-0.238,47.326,0.715,48.279z M15.174,59.285c0.954-0.954,0.954-2.5,0-3.453c-0.954-0.954-2.5-0.954-3.453,0 c-0.954,0.954-0.954,2.5,0,3.453C12.674,60.238,14.22,60.238,15.174,59.285z M0.715,0.715c-0.954,0.954-0.954,2.5,0,3.453 s2.5,0.954,3.453,0s0.954-2.5,0-3.453S1.669-0.238,0.715,0.715z M11.721,0.715c-0.954,0.954-0.954,2.5,0,3.453 c0.954,0.954,2.5,0.954,3.453,0c0.954-0.954,0.954-2.5,0-3.453C14.22-0.238,12.674-0.238,11.721,0.715z M0.715,15.174 c0.954,0.954,2.5,0.954,3.453,0c0.954-0.954,0.954-2.5,0-3.453c-0.954-0.954-2.5-0.954-3.453,0 C-0.238,12.674-0.238,14.22,0.715,15.174z" fill="#ffffff"/></g><g id="change3_1"><circle cx="30" cy="30" fill="#a6a6a6" r="23.14"/></g><g id="change4_1"><path d="M30,47.899c-9.87,0-17.899-8.029-17.899-17.899S20.13,12.101,30,12.101S47.899,20.13,47.899,30 S39.87,47.899,30,47.899z M30,14.101c-8.767,0-15.899,7.132-15.899,15.899S21.233,45.899,30,45.899S45.899,38.767,45.899,30 S38.767,14.101,30,14.101z" fill="#000000"/></g><g id="change2_2"><path d="M30 20.017L21.355 25.009 30 39.983 38.645 34.991 38.645 25.009z" fill="#ffffff"/></g><g id="change5_1"><path d="M21.355 25.009L30 30 30 39.983 21.355 34.991z" fill="#ff3131"/></g></g></svg>