<?xml version="1.0" encoding="UTF-8"?><svg xmlns="http://www.w3.org/2000/svg" xmlns:xlink="http://www.w3.org/1999/xlink" height="51.5" preserveAspectRatio="xMidYMid meet" version="1.0" viewBox="0.0 0.0 506.9 51.5" width="506.9" zoomAndPan="magnify"><g><g id="change1_1"><path d="M496.2,51H10.7C5.1,51,0.5,46.5,0.5,40.8V10.7c0-5.6,4.6-10.2,10.2-10.2h485.5c5.6,0,10.2,4.6,10.2,10.2 v30.1C506.4,46.5,501.9,51,496.2,51z" fill="#FFF"/></g><g id="change2_1"><path d="M496.2,51v-0.5H10.7c-2.7,0-5.1-1.1-6.9-2.8C2.1,46,1,43.5,1,40.8V10.7C1,8,2.1,5.6,3.8,3.8 C5.6,2.1,8,1,10.7,1h485.5c2.7,0,5.1,1.1,6.9,2.8c1.8,1.8,2.8,4.2,2.8,6.9v30.1c0,2.7-1.1,5.1-2.8,6.9c-1.8,1.8-4.2,2.8-6.9,2.8V51 v0.5c5.9,0,10.7-4.8,10.7-10.7V10.7c0-5.9-4.8-10.7-10.7-10.7H10.7C4.8,0,0,4.8,0,10.7v30.1c0,5.9,4.8,10.7,10.7,10.7h485.5V51z" fill="#010101"/></g><g id="change3_1"><path d="M491.6,33c-0.3,0-0.6-0.1-0.8-0.4l-12-12c-0.5-0.5-0.5-1.2,0-1.7c0.5-0.5,1.2-0.5,1.7,0l12,12 c0.5,0.5,0.5,1.2,0,1.7C492.2,32.8,491.9,33,491.6,33z" fill="#141223"/></g><g id="change3_2"><path d="M479.6,33c-0.3,0-0.6-0.1-0.8-0.4c-0.5-0.5-0.5-1.2,0-1.7l12-12c0.5-0.5,1.2-0.5,1.7,0 c0.5,0.5,0.5,1.2,0,1.7l-12,12C480.2,32.8,479.9,33,479.6,33z" fill="#141223"/></g><g id="change2_2"><path d="M41.7,34.6l-7.2-7.2c0.9-1.4,1.4-3.1,1.4-5c0-5.3-4.3-9.6-9.6-9.6s-9.6,4.3-9.6,9.6c0,5.3,4.3,9.6,9.6,9.6 c1.8,0,3.4-0.5,4.8-1.3l7.2,7.2c0.9,0.9,2.4,0.9,3.4,0C42.6,37.1,42.6,35.6,41.7,34.6z M20.5,22.5c0-3.2,2.6-5.8,5.7-5.8 c3.2,0,5.8,2.6,5.8,5.8c0,3.2-2.6,5.7-5.8,5.7C23.1,28.2,20.5,25.6,20.5,22.5z" fill="#010101"/></g></g></svg>